<?xml version="1.0" encoding="utf-8"?>
<!-- Generator: Adobe Illustrator 13.0.0, SVG Export Plug-In . SVG Version: 6.00 Build 14948)  -->
<!DOCTYPE svg PUBLIC "-//W3C//DTD SVG 1.0//EN" "http://www.w3.org/TR/2001/REC-SVG-20010904/DTD/svg10.dtd">
<svg version="1.0" id="Layer_1" xmlns="http://www.w3.org/2000/svg" xmlns:xlink="http://www.w3.org/1999/xlink" x="0px" y="0px"
	 width="610.604px" height="139.13px" viewBox="0 0 610.604 139.13" enable-background="new 0 0 610.604 139.13"
	 xml:space="preserve">
<path fill-rule="evenodd" clip-rule="evenodd" d="M73.66,2.309c4.915,2.491,15.488,9.108,13.533,19.009
	c-2.531,12.818-12.375,26.253-15.84,26.253c-3.326,0-13.354-13.435-15.885-26.253c-1.961-9.933,8.594-16.537,13.447-19.009
	C70.324,1.592,72.211,1.576,73.66,2.309z M100.635,69.058v45.726c-3.569,3.274-7.74,5.958-12.34,7.886v-8.137
	c-0.158-5.239-0.263-12.715,0-20.797v-2.83l0.12-16.932c1.475-45.613,54.565-59.459,53.984-42.216
	c-0.011,0.82-0.212,1.584-0.554,2.265c-0.808,2.648-3.371,4.584-6.406,4.584c-3.686,0-6.673-2.851-6.673-6.368
	c0-0.388,0.036-0.768,0.106-1.135C122.837,28.343,100.635,38.331,100.635,69.058z M41.77,69.058v45.726
	c3.568,3.274,7.739,5.958,12.34,7.886v-8.137c0.157-5.239,0.262-12.715,0-20.797v-2.83l-0.121-16.932
	C52.515,28.361-0.575,14.515,0.005,31.758c0.012,0.82,0.213,1.584,0.555,2.265c0.809,2.648,3.371,4.584,6.407,4.584
	c3.685,0,6.673-2.851,6.673-6.368c0-0.388-0.036-0.768-0.106-1.135C19.568,28.343,41.77,38.331,41.77,69.058z M113.39,7.039
	c-6.673,1.106-27.947,34.615-27.947,65.927l0.005,50.777c-3.883,1.313-8.028,2.101-12.34,2.276l0.053-63.322
	c0,0,0.122-11.553,0.52-11.553c11.086,0,26.19-60.644,49.382-49.86c1.23,0.64,2.03,1.461,2.865,2.361
	c0.169,0.163,0.315,0.338,0.436,0.523c0.782,1.042,1.241,2.321,1.241,3.701c0,3.518-2.988,6.369-6.673,6.369
	s-6.672-2.852-6.672-6.369c0-0.375,0.033-0.741,0.099-1.097C114.093,6.745,113.775,6.823,113.39,7.039z M29.016,7.039
	c6.671,1.106,27.947,34.615,27.947,65.927l-0.005,50.777c3.883,1.313,8.028,2.101,12.339,2.276l-0.052-63.322
	c0,0-0.122-11.553-0.52-11.553c-11.085,0-26.191-60.644-49.383-49.86c-1.229,0.64-2.029,1.461-2.865,2.361
	c-0.169,0.163-0.314,0.338-0.437,0.523C15.26,5.211,14.8,6.49,14.8,7.87c0,3.518,2.987,6.369,6.672,6.369
	c3.685,0,6.673-2.852,6.673-6.369c0-0.375-0.035-0.741-0.099-1.097C28.312,6.745,28.629,6.823,29.016,7.039z M38.379,54.895
	c-1.339-4.881-3.584-10.211-5-11.778c-1.101,0.352-3.446,2.827-3.446,2.827c-0.285,0.281-0.566,0.562-0.847,0.846
	c-9.292,9.479-15.061,22.066-15.441,35.983l-0.001,0.095l-0.004,0.159l-0.003,0.098l-0.007,0.332
	c-0.003,0.26-0.005,0.52-0.005,0.783c0,30.315,25.747,54.891,57.506,54.891s57.505-24.575,57.505-54.891v-0.086v-0.088v-0.082
	v-0.088V83.81l0-0.086l-0.003-0.083l-0.001-0.085c-0.179-14.231-5.989-27.111-15.456-36.766c-0.279-0.284-0.562-0.565-0.847-0.846
	c0,0-2.345-2.475-3.446-2.827c-1.415,1.567-3.913,7.552-5.212,11.854l0.914,0.979l0.345,0.377
	c6.789,7.48,10.896,17.236,10.896,27.912c0,23.562-20.01,42.659-44.693,42.659c-24.684,0-44.693-19.098-44.693-42.659
	c0-10.676,4.106-20.432,10.895-27.912l0.345-0.377C37.595,55.777,38.464,55.061,38.379,54.895z"/>
<path fill-rule="evenodd" clip-rule="evenodd" d="M193.351,76.916l12.356,3.842c-1.898,7.047-5.054,12.279-9.467,15.701
	c-4.413,3.421-10.012,5.131-16.796,5.131c-8.396,0-15.296-2.906-20.702-8.719c-5.405-5.813-8.107-13.758-8.107-23.836
	c0-10.665,2.716-18.944,8.15-24.843c5.433-5.899,12.578-8.848,21.433-8.848c7.733,0,14.014,2.319,18.844,6.957
	c2.875,2.743,5.031,6.681,6.469,11.819l-12.622,3.036c-0.748-3.312-2.308-5.93-4.681-7.848c-2.373-1.918-5.256-2.877-8.651-2.877
	c-4.688,0-8.493,1.701-11.413,5.105c-2.919,3.401-4.379,8.917-4.379,16.539c0,8.086,1.439,13.848,4.316,17.28
	c2.877,3.431,6.618,5.147,11.223,5.147c3.395,0,6.315-1.09,8.761-3.276C190.53,85.041,192.286,81.603,193.351,76.916z
	 M210.609,68.903c0-6.534,0.964-12.017,2.891-16.451c1.438-3.267,3.4-6.199,5.888-8.795c2.487-2.597,5.212-4.523,8.174-5.778
	c3.939-1.691,8.483-2.537,13.631-2.537c9.317,0,16.772,2.932,22.365,8.794c5.594,5.863,8.39,14.018,8.39,24.462
	c0,10.354-2.775,18.456-8.325,24.304c-5.551,5.85-12.97,8.775-22.258,8.775c-9.404,0-16.881-2.91-22.431-8.729
	C213.385,87.128,210.609,79.114,210.609,68.903z M223.759,68.465c0,7.259,1.657,12.763,4.969,16.507
	c3.313,3.746,7.517,5.619,12.616,5.619c5.098,0,9.281-1.857,12.55-5.575c3.269-3.715,4.903-9.292,4.903-16.726
	c0-7.344-1.591-12.827-4.773-16.439c-3.184-3.615-7.41-5.422-12.68-5.422c-5.271,0-9.52,1.829-12.745,5.486
	C225.372,55.576,223.759,61.09,223.759,68.465z M278.785,100.515v-64.01h19.162l11.331,43.664l11.199-43.664h19.205v64.01h-11.827
	l-0.042-50.387l-12.462,50.387h-12.292l-12.403-50.387l-0.044,50.387H278.785z M345.672,100.515v-64.01h19.162l11.331,43.664
	l11.199-43.664h19.205v64.01h-11.827L394.7,50.128l-12.462,50.387h-12.292l-12.403-50.387l-0.043,50.387H345.672z M412.736,36.505
	h12.797v34.688c0,5.507,0.156,9.074,0.469,10.705c0.541,2.622,1.828,4.727,3.862,6.313c2.035,1.588,4.817,2.381,8.343,2.381
	c3.585,0,6.288-0.75,8.109-2.249s2.916-3.342,3.286-5.526c0.37-2.186,0.555-5.813,0.555-10.879V36.505h12.798v33.658
	c0,7.691-0.345,13.127-1.031,16.302c-0.688,3.177-1.956,5.859-3.804,8.045c-1.846,2.185-4.317,3.925-7.409,5.222
	c-3.094,1.297-7.131,1.947-12.114,1.947c-6.015,0-10.574-0.707-13.683-2.121c-3.106-1.412-5.563-3.248-7.366-5.508
	c-1.807-2.259-2.994-4.627-3.567-7.104c-0.829-3.671-1.244-9.092-1.244-16.259V36.505z M470.662,100.515v-64.01h12.39L509.054,79.4
	V36.505h11.824v64.01H508.1l-25.612-42.081v42.081H470.662z M525.742,100.515v-64.01h12.798v64.01H525.742z M610.604,100.515
	h-13.775l-5.46-14.572h-25.355l-5.245,14.572h-13.532l24.542-64.01h13.513L610.604,100.515z M587.219,75.125l-8.784-23.689
	l-8.526,23.689H587.219z"/>
</svg>
