<?xml version="1.0" standalone="no"?>
<svg xmlns:xlink="http://www.w3.org/1999/xlink" xmlns="http://www.w3.org/2000/svg" data-v-e3d92e12="" width="500" height="212.5" id="logo" style="background-image: none; background-position: initial initial; background-repeat: initial initial;"><g data-v-e3d92e12="" transform="translate(102.2592, 105.94285)rotate(90)" id="icon"><path d="M18.239392882433712,-40.090316079606254A44.044396875,44.044396875,0,0,1,19.99573774800818,-39.24384496956676L18.85097942211024,-36.99713025289497A41.52285,41.52285,0,0,0,17.19518550561064,-37.795140792833905Z" fill="rgb(110, 110, 110)"/><path d="M22.825077160812132,-37.66861755739759A44.044396875,44.044396875,0,0,1,24.46975583505159,-36.621577593755674L23.068859450137992,-34.52498799119673A41.52285,41.52285,0,0,0,21.518338822452726,-35.51208479439955Z" fill="rgb(82, 82, 82)"/><path d="M25.71016073628118,-35.76166286677809A44.044396875,44.044396875,0,0,1,27.267619606313467,-34.588810576368466L25.70654519309985,-32.60859712342153A41.52285,41.52285,0,0,0,24.238251025624766,-33.714303482962535Z" fill="rgb(62, 62, 62)"/><path d="M28.43673262131505,-33.63422563262526A44.044396875,44.044396875,0,0,1,29.89736943529877,-32.34279203983127L28.18574153665251,-30.491163410921555A41.52285,41.52285,0,0,0,26.80872635118747,-31.70866227940949Z" fill="rgb(43, 43, 43)"/><path d="M17.39675412167751,-42.60070451568918A46.01594375,46.01594375,0,0,1,19.265022932912057,-41.78906520368141L18.209352780036234,-39.499139621670196A43.494396875,43.494396875,0,0,0,16.44345994979259,-40.26630333665578Z" fill="rgb(24, 24, 24)"/><path d="M25.37346553141526,-38.38820556016191A46.01594375,46.01594375,0,0,1,27.047493106570005,-37.22768050595164L25.565365040480835,-35.1877062319636A43.494396875,43.494396875,0,0,0,23.983069562003887,-36.28463771217914Z" fill="rgb(72, 72, 72)"/><path d="M28.30715150001286,-36.27908837275936A46.01594375,46.01594375,0,0,1,29.884964860509015,-34.99079814021545L28.247351163767192,-33.07339885392534A43.494396875,43.494396875,0,0,0,26.755997626199093,-34.2910943328853Z" fill="rgb(91, 91, 91)"/><path d="M29.70963803749948,-35.139784957849805A46.01594375,46.01594375,0,0,1,31.23565692390191,-33.79054328855135L29.524029025255654,-31.93891465964164A43.494396875,43.494396875,0,0,0,28.081631767371906,-33.21422160463404Z" fill="rgb(101, 101, 101)"/><path d="M14.600571631552812,-45.71238961721819A47.98749062499999,47.98749062499999,0,0,1,16.609289031658783,-45.02144793703643L15.736538648000836,-42.65575450578902A45.46594375,45.46594375,0,0,0,13.833371153026947,-43.31039001926404Z" fill="rgb(43, 43, 43)"/><path d="M18.142115694833045,-44.42592592844582A47.98749062499999,47.98749062499999,0,0,1,20.09043023014229,-43.57951204008882L19.034760077266473,-41.289586458077615A45.46594375,45.46594375,0,0,0,17.18882152294813,-42.09152474941243Z" fill="rgb(120, 120, 120)"/><path d="M19.87228244799253,-43.679419029923814A47.98749062499999,47.98749062499999,0,0,1,21.785864850090565,-42.75716722630313L20.641106524192626,-40.51045250963134A45.46594375,45.46594375,0,0,0,18.82807507116946,-41.384243743151465Z" fill="rgb(110, 110, 110)"/><path d="M23.238070552249784,-41.98560864740588A47.98749062499999,47.98749062499999,0,0,1,25.07339497588255,-40.91606189344045L23.75589035283107,-38.76608975151391A45.46594375,45.46594375,0,0,0,22.017004740745815,-39.779436186604514Z" fill="rgb(91, 91, 91)"/><path d="M32.397346500492034,-35.4007231029469A47.98749062499999,47.98749062499999,0,0,1,33.93228003306337,-33.932280033063364L32.14927713867113,-32.149277138671124A45.46594375,45.46594375,0,0,0,30.69499810171894,-33.54055951551248Z" fill="rgb(34, 34, 34)"/><path d="M20.68872723077194,-45.47397050508259A49.959037499999994,49.959037499999994,0,0,1,22.680928401131755,-44.51382835467132L21.536170075233816,-42.26711363799953A47.437490624999995,47.437490624999995,0,0,0,19.644519853948868,-43.17879521831024Z" fill="rgb(34, 34, 34)"/><path d="M24.192797394216583,-43.710570599899434A49.959037499999994,49.959037499999994,0,0,1,26.103525388340266,-42.59708194497225L24.78602076528878,-40.447109803045706A47.437490624999995,47.437490624999995,0,0,0,22.97173158271261,-41.50439813909806Z" fill="rgb(53, 53, 53)"/><path d="M30.987982593565345,-31.299422212932313A44.044396875,44.044396875,0,0,1,32.34279203983127,-29.897369435298764L30.491163410921555,-28.185741536652507A41.52285,41.52285,0,0,0,29.21391696398896,-29.5075266287037Z" fill="rgb(24, 24, 24)"/><path d="M32.192901531457615,-30.05870900535123A44.044396875,44.044396875,0,0,1,33.491622135005365,-28.604547590348783L31.574222848715248,-26.96693389360696A41.52285,41.52285,0,0,0,30.34985415169191,-28.337844397440133Z" fill="rgb(34, 34, 34)"/><path d="M36.49877155560013,-24.652557088761082A44.044396875,44.044396875,0,0,1,37.554021790376865,-23.01313415096712L35.40404964845032,-21.695629527915635A41.52285,41.52285,0,0,0,34.40921261309588,-23.241195310681913Z" fill="rgb(72, 72, 72)"/><path d="M37.43848717476732,-23.20061581396694A44.044396875,44.044396875,0,0,1,38.42856040736708,-21.5210278820471L36.22852082728269,-20.288946517491837A41.52285,41.52285,0,0,0,35.295129403103836,-21.87237784377033Z" fill="rgb(82, 82, 82)"/><path d="M32.375088890384134,-32.70046939331131A46.01594375,46.01594375,0,0,1,33.79054328855135,-31.235656923901907L31.93891465964164,-29.524029025255647A43.494396875,43.494396875,0,0,0,30.601023260807747,-30.9085738090827Z" fill="rgb(24, 24, 24)"/><path d="M33.63394327376273,-31.40421849147777A46.01594375,46.01594375,0,0,1,34.99079814021546,-29.884964860509005L33.07339885392535,-28.247351163767185A43.494396875,43.494396875,0,0,0,31.790895893997025,-29.68335388356667Z" fill="rgb(34, 34, 34)"/><path d="M38.13255573945456,-25.75607252631028A46.01594375,46.01594375,0,0,1,39.23504184190866,-24.043264563424835L37.08506969998212,-22.725759940373347A43.494396875,43.494396875,0,0,0,36.04299679695031,-24.344710748231112Z" fill="rgb(72, 72, 72)"/><path d="M39.11433558299098,-24.239138415057777A46.01594375,46.01594375,0,0,1,40.148727183561434,-22.484367563779045L37.94868760347705,-21.25228619922378A43.494396875,43.494396875,0,0,0,36.9709778113275,-22.910900444861166Z" fill="rgb(82, 82, 82)"/><path d="M41.692218128144205,-19.47372657604105A46.01594375,46.01594375,0,0,1,42.51318859981566,-17.6095392977689L40.18358305173537,-16.644585084774434A43.494396875,43.494396875,0,0,0,39.40759949891441,-18.406620038811315Z" fill="rgb(110, 110, 110)"/><path d="M41.245332751696196,-15.450935967907144A44.044396875,44.044396875,0,0,1,41.888710654258645,-13.610467141369824L39.490577067646214,-12.831266304881783A41.52285,41.52285,0,0,0,38.88403262529108,-14.566368075735245Z" fill="rgb(34, 34, 34)"/><path d="M41.820134994310514,-13.819739691475904A44.044396875,44.044396875,0,0,1,42.390760408786406,-11.95543090178587L39.963884414979326,-11.270981083679999A41.52285,41.52285,0,0,0,39.42592737225458,-13.02855797700602Z" fill="rgb(43, 43, 43)"/><path d="M42.330453619947455,-12.167234378115127A44.044396875,44.044396875,0,0,1,42.82744668330742,-10.281960254298276L40.37557034918466,-9.69331682658418A41.52285,41.52285,0,0,0,39.90703019685828,-11.470658786204975Z" fill="rgb(53, 53, 53)"/><path d="M43.15459316532752,-8.808517742366027A44.044396875,44.044396875,0,0,1,43.50213726198242,-6.890061663160241L41.011634813280814,-6.49560482669575A41.52285,41.52285,0,0,0,40.68398765682768,-8.304229070876637Z" fill="rgb(72, 72, 72)"/><path d="M43.71267029348489,-5.395493665605856A44.044396875,44.044396875,0,0,1,43.90862269850871,-3.4556835506908192L41.39484891100061,-3.257845263042946A41.52285,41.52285,0,0,0,41.210114804094005,-5.0866010218899635Z" fill="rgb(91, 91, 91)"/><path d="M43.8907954961083,-3.6751825534671365A44.044396875,44.044396875,0,0,1,44.010440241210155,-1.7291749065317972L41.4908373874681,-1.630179440791442A41.52285,41.52285,0,0,0,41.378042318023695,-3.4647779222253887Z" fill="rgb(101, 101, 101)"/><path d="M42.424609856441386,-17.82188423629501A46.01594375,46.01594375,0,0,1,43.171759740546385,-15.926903029393454L40.80606630929897,-15.054152645735506A43.494396875,43.494396875,0,0,0,40.099858179331555,-16.845294105996064Z" fill="rgb(24, 24, 24)"/><path d="M44.69024943601845,-10.965796120191948A46.01594375,46.01594375,0,0,1,45.131760293863024,-8.977265284063543L42.65866423501626,-8.485335892241032A43.494396875,43.494396875,0,0,0,42.2413469551612,-10.36490071991545Z" fill="rgb(62, 62, 62)"/><path d="M45.4128507591501,-7.425635671800998A46.01594375,46.01594375,0,0,1,45.696982255137186,-5.40859426994125L43.19291359084142,-5.112218212685806A43.494396875,43.494396875,0,0,0,42.92435171762874,-7.018731305678585Z" fill="rgb(82, 82, 82)"/><path d="M45.66936818537822,-5.6370106219101315A46.01594375,46.01594375,0,0,1,45.874091952463594,-3.610369335688378L43.360318164955494,-3.412531048040505A43.494396875,43.494396875,0,0,0,43.16681269598733,-5.328117978194239Z" fill="rgb(91, 91, 91)"/><path d="M41.75113255193735,-23.65675774731227A47.98749062499999,47.98749062499999,0,0,1,42.75716722630313,-21.78586485009056L40.51045250963135,-20.641106524192622A45.46594375,45.46594375,0,0,0,39.55728085344488,-22.413691631675658Z" fill="rgb(53, 53, 53)"/><path d="M43.478515564722606,-20.30807575258267A47.98749062499999,47.98749062499999,0,0,1,44.334660405014745,-18.364017622962564L42.00505485693446,-17.3990634099681A45.46594375,45.46594375,0,0,0,41.193896935492816,-19.24096921535294Z" fill="rgb(34, 34, 34)"/><path d="M37.82644696619723,-32.63533878849542A49.959037499999994,49.959037499999994,0,0,1,39.233677999256045,-30.929337829593084L37.25346454630911,-29.368263416379467A47.437490624999995,47.437490624999995,0,0,0,35.917259681715066,-30.988158605396475Z" fill="rgb(101, 101, 101)"/><path d="M42.466032399438305,-26.316183617239446A49.959037499999994,49.959037499999994,0,0,1,43.589060735950135,-24.411046927242925L41.38902115586575,-23.178965562687658A47.437490624999995,47.437490624999995,0,0,0,40.32267462777482,-24.98794564704284Z" fill="rgb(62, 62, 62)"/><path d="M43.46646114775269,-24.628686185367485A49.959037499999994,49.959037499999994,0,0,1,44.513828354671325,-22.680928401131755L42.267113637999536,-21.536170075233812A47.437490624999995,47.437490624999995,0,0,0,41.27260944926021,-23.38562006973087Z" fill="rgb(53, 53, 53)"/><path d="M44.3998677634892,-22.90321310452048A49.959037499999994,49.959037499999994,0,0,1,45.369958876496256,-20.915837527372524L43.08003329448504,-19.860167374496704A47.437490624999995,47.437490624999995,0,0,0,42.158904898473246,-21.74723556129494Z" fill="rgb(43, 43, 43)"/><path d="M44.242286517382645,-18.585460451607972A47.98749062499999,47.98749062499999,0,0,1,45.02144793703643,-16.60928903165878L42.65575450578902,-15.736538648000835A45.46594375,45.46594375,0,0,0,41.91753484027283,-17.60887032130903Z" fill="rgb(24, 24, 24)"/><path d="M47.018026851953415,-9.597104117047483A47.98749062499999,47.98749062499999,0,0,1,47.396684984730975,-7.506897424544968L44.90618253602938,-7.112440588080478A45.46594375,45.46594375,0,0,0,44.54742134345359,-9.092815445558097Z" fill="rgb(72, 72, 72)"/><path d="M47.62606607727154,-5.878527578214405A47.98749062499999,47.98749062499999,0,0,1,47.839561206418466,-3.765055120685936L45.32578741891037,-3.5672168330380636A45.46594375,45.46594375,0,0,0,45.12351058788066,-5.569634934498514Z" fill="rgb(91, 91, 91)"/><path d="M47.820138015984334,-4.004204866970784A47.98749062499999,47.98749062499999,0,0,1,47.950494008829466,-1.8839800406775318L45.43089115508742,-1.784984574937177A45.46594375,45.46594375,0,0,0,45.30738483789973,-3.793800235729036Z" fill="rgb(101, 101, 101)"/><path d="M47.94047476794922,-2.123707962052851A47.98749062499999,47.98749062499999,0,0,1,47.98749062499999,0L45.46594375,0A45.46594375,45.46594375,0,0,0,45.42139838444353,-2.0121157719761906Z" fill="rgb(110, 110, 110)"/><path d="M48.01493197404501,-13.801149787399439A49.959037499999994,49.959037499999994,0,0,1,48.578665317019535,-11.66270568707832L46.12678898289678,-11.074062259364224A47.437490624999995,47.437490624999995,0,0,0,45.59150855095583,-13.104574195489286Z" fill="rgb(91, 91, 91)"/><path d="M48.51974479950548,-11.90545221809178A49.959037499999994,49.959037499999994,0,0,1,48.999088603112995,-9.746524713490826L46.52599254426624,-9.254595321668313A47.437490624999995,47.437490624999995,0,0,0,46.07084231864823,-11.30455681781528Z" fill="rgb(82, 82, 82)"/><path d="M49.91009001525132,-2.2109596549725183A49.959037499999994,49.959037499999994,0,0,1,49.959037499999994,0L47.437490624999995,0A47.437490624999995,47.437490624999995,0,0,0,47.39101363174562,-2.099367464895858Z" fill="rgb(34, 34, 34)"/><path d="M17.73023325426038,-48.81008525170298A51.930584374999995,51.930584374999995,0,0,1,19.8729742733499,-47.97760401541293L18.908020060355437,-45.647998467332634A49.4090375,49.4090375,0,0,0,16.869322197830517,-46.44005765782584Z" fill="rgb(110, 110, 110)"/><path d="M21.505172013551345,-47.268521980241374A51.930584374999995,51.930584374999995,0,0,1,23.57599195217295,-46.270489483039505L22.431233626275006,-44.023774766367715A49.4090375,49.4090375,0,0,0,20.460964636728278,-44.97334669346902Z" fill="rgb(110, 110, 110)"/><path d="M28.634833609498973,-43.32241795751135A51.930584374999995,51.930584374999995,0,0,1,30.52403163855494,-42.0127252871971L29.04190357246577,-39.97275101320906A49.4090375,49.4090375,0,0,0,27.244437640087604,-41.218850109528574Z" fill="rgb(72, 72, 72)"/><path d="M35.059410568416496,-38.309572225805375A51.930584374999995,51.930584374999995,0,0,1,36.72046836254267,-36.72046836254266L34.93746546815042,-34.937465468150414A49.4090375,49.4090375,0,0,0,33.3570621696434,-36.44940863837095Z" fill="rgb(34, 34, 34)"/><path d="M33.15841578208048,-42.496578875421285A53.90213125,53.90213125,0,0,1,35.00663394114991,-40.98750216105584L33.369020244408084,-39.07010287476573A51.380584375,51.380584375,0,0,0,31.60726190826671,-40.50858483554722Z" fill="rgb(53, 53, 53)"/><path d="M6.51167206991438,-57.47754502546644A57.845225,57.845225,0,0,1,9.048986828006791,-57.13305429160238L8.6545299915423,-54.64255184290077A55.323678125,55.323678125,0,0,0,6.227820008505381,-54.97202578785198Z" fill="rgb(91, 91, 91)"/><path d="M19.749620464292608,-54.36931622539518A57.845225,57.845225,0,0,1,22.136409248930903,-53.442019431010195L21.17145503593644,-51.1124138829299A55.323678125,55.323678125,0,0,0,18.888709407862745,-51.999288631518034Z" fill="rgb(34, 34, 34)"/><path d="M21.12356198745519,-51.72681157947241A55.873678125,55.873678125,0,0,1,23.392059419063237,-50.74129938571851L22.336389266187417,-48.4513738037073A53.35213125,53.35213125,0,0,0,20.17026781557027,-49.39241040043902Z" fill="rgb(120, 120, 120)"/><path d="M23.954506361889575,-52.65217640571771A57.845225,57.845225,0,0,1,26.261182605296526,-51.54047286814408L25.116424279398583,-49.29375815147229A55.323678125,55.323678125,0,0,0,22.910298985066504,-50.35700111894536Z" fill="rgb(110, 110, 110)"/><path d="M26.00315305061564,-51.67113397949461A57.845225,57.845225,0,0,1,28.264405654170698,-50.469727840727536L27.03232428961543,-48.26968826064315A55.323678125,55.323678125,0,0,0,24.86964256094382,-49.41872357891789Z" fill="rgb(101, 101, 101)"/><path d="M39.052506670303195,-42.672845910093095A57.845225,57.845225,0,0,1,40.902750856761614,-40.90275085676161L39.11974796236937,-39.11974796236936A55.323678125,55.323678125,0,0,0,37.3501582715301,-40.81268232265867Z" fill="rgb(34, 34, 34)"/><path d="M36.536407780840484,-36.9036109344483A51.930584374999995,51.930584374999995,0,0,1,38.1337970347116,-35.25051938971133L36.28216840580189,-33.53889149106507A49.4090375,49.4090375,0,0,0,34.7623421512641,-35.11171535021969Z" fill="rgb(120, 120, 120)"/><path d="M39.31920217207084,-33.92323590226636A51.930584374999995,51.930584374999995,0,0,1,40.78196714021857,-32.149910570686295L38.801753687271635,-30.588836157472677A49.4090375,49.4090375,0,0,0,37.410014887588666,-32.276055719167424Z" fill="rgb(101, 101, 101)"/><path d="M41.85958060694885,-30.73371284012632A51.930584374999995,51.930584374999995,0,0,1,43.17870285692586,-28.85108686206286L41.08211325436692,-27.45019047714926A49.4090375,49.4090375,0,0,0,39.82704244203893,-29.241403471728848Z" fill="rgb(82, 82, 82)"/><path d="M45.18178974356803,-25.600614623422704A51.930584374999995,51.930584374999995,0,0,1,46.27048948303951,-23.575991952172945L44.02377476636772,-22.431233626275002A49.4090375,49.4090375,0,0,0,42.987938045075545,-24.35754850778609Z" fill="rgb(53, 53, 53)"/><path d="M39.39811024298319,-36.78625643598392A53.90213125,53.90213125,0,0,1,40.98750216105586,-35.00663394114989L39.07010287476574,-33.36902024440807A51.380584375,51.380584375,0,0,0,37.555062863217486,-35.065391828072826Z" fill="rgb(110, 110, 110)"/><path d="M42.16287543273856,-33.58171658113381A53.90213125,53.90213125,0,0,1,43.60774021427893,-31.68287781588325L41.56776594029088,-30.200749749794078A51.380584375,51.380584375,0,0,0,40.190492071951944,-32.010760655299364Z" fill="rgb(91, 91, 91)"/><path d="M46.89711833938337,-26.57254306147792A53.90213125,53.90213125,0,0,1,48.027150611407706,-24.47105550321414L45.780435894735916,-23.326297177316196A51.380584375,51.380584375,0,0,0,44.70326664089088,-25.329476945841304Z" fill="rgb(53, 53, 53)"/><path d="M47.877639839265186,-20.112612882233897A51.930584374999995,51.930584374999995,0,0,1,48.72082433001653,-17.974061036189436L46.35513089876911,-17.101310652531488A49.4090375,49.4090375,0,0,0,45.55288816215536,-19.136022751934952Z" fill="rgb(120, 120, 120)"/><path d="M50.434492481249,-12.375280267041695A51.930584374999995,51.930584374999995,0,0,1,50.93275275773799,-10.131154428204468L48.45965669889122,-9.639225036381955A49.4090375,49.4090375,0,0,0,47.98559000039175,-11.774384866765196Z" fill="rgb(82, 82, 82)"/><path d="M51.74948053586037,-4.333227180474431A51.930584374999995,51.930584374999995,0,0,1,51.89054777644879,-2.038785174823267L49.370944922706734,-1.9397897090829117A49.4090375,49.4090375,0,0,0,49.23672735777577,-4.122822549232683Z" fill="rgb(43, 43, 43)"/><path d="M51.18004934324676,-16.912785179119762A53.90213125,53.90213125,0,0,1,51.878388477574276,-14.631218755186277L49.451512483767196,-13.946768937080405A51.380584375,51.380584375,0,0,0,48.78584172119082,-16.121603464649876Z" fill="rgb(43, 43, 43)"/><path d="M52.34924016299252,-12.845108315991611A53.90213125,53.90213125,0,0,1,52.86641691236298,-10.51578414291811L50.393320853516215,-10.023854751095596A51.380584375,51.380584375,0,0,0,49.90033768213527,-12.244212915715112Z" fill="rgb(62, 62, 62)"/><path d="M53.49615975295152,-6.603078447127231A53.90213125,53.90213125,0,0,1,53.73596896828311,-4.229112475678612L51.22219518077501,-4.031274188030739A51.380584375,51.380584375,0,0,0,50.993604263560634,-6.294185803411339Z" fill="rgb(91, 91, 91)"/><path d="M53.714151795798394,-4.497738337226255A53.90213125,53.90213125,0,0,1,53.86057466025845,-2.1161877418961343L51.34097180651639,-2.0171922761557792A51.380584375,51.380584375,0,0,0,51.201398617713785,-4.287333705984507Z" fill="rgb(101, 101, 101)"/><path d="M53.849320509855524,-2.3854630408118536A53.90213125,53.90213125,0,0,1,53.90213125,0L51.380584375,0A51.380584375,51.380584375,0,0,0,51.330244126349825,-2.2738708507351926Z" fill="rgb(110, 110, 110)"/><path d="M45.0379821723343,-33.06732630650082A55.873678125,55.873678125,0,0,1,46.45726548851095,-31.041752375568496L44.360675885952006,-29.6408559906549A53.35213125,53.35213125,0,0,0,43.00544400742438,-31.575016938103342Z" fill="rgb(62, 62, 62)"/><path d="M46.30147665872669,-31.273649714056255A55.873678125,55.873678125,0,0,1,47.64014209956765,-29.193916625713403L45.4901699576411,-27.87641200266192A53.35213125,53.35213125,0,0,0,44.211917716222445,-29.862287935977086Z" fill="rgb(72, 72, 72)"/><path d="M47.4935776241093,-29.431751420511958A55.873678125,55.873678125,0,0,1,48.74956106453319,-27.301065972438753L46.5495214844488,-26.068984607883486A53.35213125,53.35213125,0,0,0,45.35021985244582,-28.10351345031535Z" fill="rgb(82, 82, 82)"/><path d="M48.612446935198705,-27.544471499533135A55.873678125,55.873678125,0,0,1,49.78381173977589,-25.366119054255332L47.5370970231041,-24.22136072835739A53.35213125,53.35213125,0,0,0,46.418595236706224,-26.30140538389652Z" fill="rgb(91, 91, 91)"/><path d="M49.656359376614475,-25.614719999965157A55.873678125,55.873678125,0,0,1,50.74129938571852,-23.392059419063237L48.451373803707305,-22.336389266187414A53.35213125,53.35213125,0,0,0,47.41539651159852,-24.458742456739618Z" fill="rgb(101, 101, 101)"/><path d="M43.79746778969164,-37.7869272435792A57.845225,57.845225,0,0,1,45.42683456310615,-35.81162879396594L43.446621110159214,-34.25055438075231A55.323678125,55.323678125,0,0,0,41.88828050520947,-36.13974706048026Z" fill="rgb(43, 43, 43)"/><path d="M45.24720933096192,-36.03831437596294A57.845225,57.845225,0,0,1,46.79777006844257,-34.00057017053987L44.75779579445453,-32.518442104450706A55.323678125,55.323678125,0,0,0,43.274825970175314,-34.46735845012849Z" fill="rgb(53, 53, 53)"/><path d="M49.169426032332964,-30.470274021602794A57.845225,57.845225,0,0,1,50.46972784072754,-28.264405654170695L48.26968826064316,-27.03232428961543A55.323678125,55.323678125,0,0,0,47.02606826066948,-29.142036051406187Z" fill="rgb(82, 82, 82)"/><path d="M51.408523247656234,-26.51855563178005A57.845225,57.845225,0,0,1,52.53174622212594,-24.217466716293472L50.241820640114724,-23.161796563417653A55.323678125,55.323678125,0,0,0,49.16756038264028,-25.36257808855451Z" fill="rgb(101, 101, 101)"/><path d="M51.512993161147726,-21.639765312859826A55.873678125,55.873678125,0,0,1,52.420200722996626,-19.338833040720093L50.05450729174921,-18.466082657062145A53.35213125,53.35213125,0,0,0,49.188241484037896,-20.66317518256088Z" fill="rgb(24, 24, 24)"/><path d="M52.32285170954095,-19.60069121733953A55.873678125,55.873678125,0,0,1,53.13902567015922,-17.265916078860744L50.7408920835468,-16.486715242372703A53.35213125,53.35213125,0,0,0,49.96155158313583,-18.71612332516763Z" fill="rgb(34, 34, 34)"/><path d="M54.26398784473604,-13.314936364941527A55.873678125,55.873678125,0,0,1,54.800081066987964,-10.90041385763175L52.3269850081412,-10.408484465809238A53.35213125,53.35213125,0,0,0,51.815085363878794,-12.714040964665028Z" fill="rgb(62, 62, 62)"/><path d="M53.33066982208899,-22.40334152817279A57.845225,57.845225,0,0,1,54.269888919486675,-20.02121904298542L51.90419548823927,-19.148468659327474A55.323678125,55.323678125,0,0,0,51.00591814497917,-21.426751397873844Z" fill="rgb(24, 24, 24)"/><path d="M54.169104869181744,-20.29231709224493A57.845225,57.845225,0,0,1,55.01407817280932,-17.875157568442567L52.61594458619689,-17.095956731954526A55.323678125,55.323678125,0,0,0,51.807804742776625,-19.407749200073027Z" fill="rgb(34, 34, 34)"/><path d="M56.178735526479564,-13.784764413891443A57.845225,57.845225,0,0,1,56.733745221612956,-11.285043572345392L54.26064916276619,-10.793114180522881A55.323678125,55.323678125,0,0,0,53.729833045622314,-13.183869013614943Z" fill="rgb(62, 62, 62)"/><path d="M56.676611068518184,-11.56857005375113A57.845225,57.845225,0,0,1,57.13305429160238,-9.048986828006788L54.64255184290077,-8.654529991542297A55.323678125,55.323678125,0,0,0,54.20600556001835,-11.064281382261742Z" fill="rgb(72, 72, 72)"/><path d="M57.409555536738175,-7.086112359735782A57.845225,57.845225,0,0,1,57.666907476192875,-4.538484045673729L55.153133688684775,-4.340645758025857A55.323678125,55.323678125,0,0,0,54.90700004734728,-6.777219716019889Z" fill="rgb(91, 91, 91)"/><path d="M57.64349431567443,-4.826760650729902A57.845225,57.845225,0,0,1,57.80062842787777,-2.2709928760418694L55.28102557413571,-2.1719974103015143A55.323678125,55.323678125,0,0,0,55.13074113758983,-4.616356019488154Z" fill="rgb(101, 101, 101)"/><path d="M57.788551004459734,-2.5599664266511883A57.845225,57.845225,0,0,1,57.845225,0L55.323678125,0A55.323678125,55.323678125,0,0,0,55.26947462095403,-2.4483742365745274Z" fill="rgb(110, 110, 110)"/><path d="M45.89157029897133,3.3809547021124433A46.01594375,46.01594375,0,0,1,45.4494111233567,7.198479543852615L41.01163481328081,6.495604826695759A41.52285,41.52285,0,0,0,41.410620634910735,3.050831157898607Z" fill="rgb(34, 34, 34)"/><path d="M45.48483525465236,6.971143454290546A46.01594375,46.01594375,0,0,1,44.74451956121146,10.742208731891635L40.37557034918466,9.69331682658419A41.52285,41.52285,0,0,0,41.0436000577222,6.290466312146172Z" fill="rgb(43, 43, 43)"/><path d="M44.797671075745896,10.518352788932484A46.01594375,46.01594375,0,0,1,43.763763156908745,14.219708630951645L39.490577067646214,12.831266304881783A41.52285,41.52285,0,0,0,40.42353203779582,9.491318649787015Z" fill="rgb(53, 53, 53)"/><path d="M43.83431435792016,14.000712980923451A46.01594375,46.01594375,0,0,1,42.51318859981566,17.6095392977689L38.36211124653628,15.890106759580767A41.52285,41.52285,0,0,0,39.55423950066796,12.633653851768221Z" fill="rgb(62, 62, 62)"/><path d="M39.35476722682378,23.846789631430063A46.01594375,46.01594375,0,0,1,37.227680505951646,27.047493106570002L33.59269130488178,24.406518863152517A41.52285,41.52285,0,0,0,35.51208479439955,21.518338822452723Z" fill="rgb(91, 91, 91)"/><path d="M37.3624520629589,26.86101738665648A46.01594375,46.01594375,0,0,1,34.99079814021546,29.88496486050901L31.574222848715248,26.966933893606967A41.52285,41.52285,0,0,0,33.714303482962535,24.238251025624766Z" fill="rgb(101, 101, 101)"/><path d="M35.139784957849805,29.70963803749948A46.01594375,46.01594375,0,0,1,32.53818586832373,32.53818586832372L29.361088809191834,29.36108880919183A41.52285,41.52285,0,0,0,31.70866227940949,26.80872635118747Z" fill="rgb(110, 110, 110)"/><path d="M49.95841301333226,-0.2497941466880144A49.959037499999994,49.959037499999994,0,0,1,49.80503046037335,3.919740905683495L45.32578741891037,3.5672168330380636A45.46594375,45.46594375,0,0,0,45.465375426887135,-0.2273287715440177Z" fill="rgb(120, 120, 120)"/><path d="M49.82400652165685,3.6706677943258934A49.959037499999994,49.959037499999994,0,0,1,49.343958846105245,7.815315305237343L44.90618253602937,7.112440588080489A45.46594375,45.46594375,0,0,0,45.34305685759626,3.3405442501120572Z" fill="rgb(110, 110, 110)"/><path d="M49.38241846161199,7.568498847766887A49.959037499999994,49.959037499999994,0,0,1,48.578665317019535,11.662705687078331L44.209716104992744,10.613813781770888A45.46594375,45.46594375,0,0,0,44.94118326468185,6.887821705622514Z" fill="rgb(101, 101, 101)"/><path d="M48.6363713704308,11.419667589030107A49.959037499999994,49.959037499999994,0,0,1,47.51386816220893,15.438191610115284L43.24068207294641,14.049749284045426A45.46594375,45.46594375,0,0,0,44.262232332480735,10.39263344988464Z" fill="rgb(91, 91, 91)"/><path d="M47.59046487651623,15.200430282182172A49.959037499999994,49.959037499999994,0,0,1,46.15613221021384,19.11849594815623L42.00505485693446,17.3990634099681A45.46594375,45.46594375,0,0,0,43.31039001926404,13.833371153026944Z" fill="rgb(82, 82, 82)"/><path d="M44.62667610246301,22.458076675714302A49.959037499999994,49.959037499999994,0,0,1,42.59708194497225,26.10352538834026L38.76608975151392,23.755890352831063A45.46594375,45.46594375,0,0,0,40.61315123262838,20.438297092317153Z" fill="rgb(62, 62, 62)"/><path d="M38.150903608298904,32.255448869868346A49.959037499999994,49.959037499999994,0,0,1,35.32637419780302,35.32637419780301L32.14927713867113,32.149277138671124A45.46594375,45.46594375,0,0,0,34.71978092985859,29.35453718355634Z" fill="rgb(34, 34, 34)"/><path d="M30.05870900535124,32.19290153145761A44.044396875,44.044396875,0,0,1,28.60454759034881,33.49162213500534L26.966933893606985,31.57422284871523A41.52285,41.52285,0,0,0,28.33784439744014,30.349854151691904Z" fill="rgb(110, 110, 110)"/><path d="M28.771647447182588,33.34818134857643A44.044396875,44.044396875,0,0,1,27.267619606313467,34.58881057636846L25.70654519309985,32.60859712342153A41.52285,41.52285,0,0,0,27.124467264083645,31.438994064094263Z" fill="rgb(101, 101, 101)"/><path d="M27.440222094061003,34.45204068718014A44.044396875,44.044396875,0,0,1,25.888646929241695,35.63266557886982L24.40651886315252,33.59269130488178A41.52285,41.52285,0,0,0,25.869266168226556,32.47965732639353Z" fill="rgb(91, 91, 91)"/><path d="M26.066485907377334,35.502777476177954A44.044396875,44.044396875,0,0,1,24.469755835051586,36.62157759375569L23.06885945013799,34.524987991196745A41.52285,41.52285,0,0,0,24.574176538979863,33.47023931126803Z" fill="rgb(82, 82, 82)"/><path d="M24.652557088761075,36.498771555600136A44.044396875,44.044396875,0,0,1,23.013134150967122,37.55402179037686L21.69562952791564,35.40404964845032A41.52285,41.52285,0,0,0,23.241195310681906,34.40921261309589Z" fill="rgb(72, 72, 72)"/><path d="M23.200615813966945,37.43848717476731A44.044396875,44.044396875,0,0,1,21.521027882047115,38.42856040736707L20.288946517491848,36.228520827282686A41.52285,41.52285,0,0,0,21.872377843770334,35.29512940310383Z" fill="rgb(62, 62, 62)"/><path d="M21.71290087120184,38.32047536030669A44.044396875,44.044396875,0,0,1,19.99573774800818,39.24384496956676L18.85097942211024,36.99713025289497A41.52285,41.52285,0,0,0,20.469834755565223,36.12662366181421Z" fill="rgb(53, 53, 53)"/><path d="M18.63937739949942,39.905920691565804A44.044396875,44.044396875,0,0,1,16.855060972575235,40.691716794616575L15.89010675958077,38.36211124653628A41.52285,41.52285,0,0,0,17.572270862269686,37.62130206233601Z" fill="rgb(34, 34, 34)"/><path d="M32.70046939331131,32.375088890384134A46.01594375,46.01594375,0,0,1,31.23565692390192,33.79054328855134L29.52402902525566,31.93891465964163A43.494396875,43.494396875,0,0,0,30.9085738090827,30.601023260807747Z" fill="rgb(120, 120, 120)"/><path d="M30.059544560953533,34.84093655445003A46.01594375,46.01594375,0,0,1,28.48819234740668,36.13709971733098L26.92711793419306,34.156886264384056A43.494396875,43.494396875,0,0,0,28.412364377854594,32.93174926996787Z" fill="rgb(101, 101, 101)"/><path d="M28.668520991475567,35.994207636291826A46.01594375,46.01594375,0,0,1,27.047493106570005,37.22768050595164L25.565365040480835,35.1877062319636A43.494396875,43.494396875,0,0,0,27.09756506564112,34.02182427550521Z" fill="rgb(91, 91, 91)"/><path d="M27.23329264056458,37.091978258870675A46.01594375,46.01594375,0,0,1,25.565088591804404,38.26085890954823L24.164192206890807,36.16426930698929A43.494396875,43.494396875,0,0,0,25.74098327216711,35.05944009396075Z" fill="rgb(82, 82, 82)"/><path d="M25.75607252631027,38.13255573945457A46.01594375,46.01594375,0,0,1,24.043264563424838,39.23504184190866L22.725759940373354,37.085069699982114A43.494396875,43.494396875,0,0,0,24.3447107482311,36.04299679695032Z" fill="rgb(72, 72, 72)"/><path d="M24.23913841505778,39.114335582990975A46.01594375,46.01594375,0,0,1,22.484367563779056,40.14872718356143L21.25228619922379,37.94868760347704A43.494396875,43.494396875,0,0,0,22.910900444861173,36.970977811327494Z" fill="rgb(62, 62, 62)"/><path d="M22.684829309257054,40.03580395612203A46.01594375,46.01594375,0,0,1,20.890801299049375,41.000506097934945L19.746042973151432,38.753791381263156A43.494396875,43.494396875,0,0,0,21.44176319362044,37.84195225762954Z" fill="rgb(53, 53, 53)"/><path d="M19.473726576041045,41.69221812814421A46.01594375,46.01594375,0,0,1,17.609539297768904,42.51318859981566L16.644585084774437,40.18358305173537A43.494396875,43.494396875,0,0,0,18.40662003881131,39.407599498914415Z" fill="rgb(34, 34, 34)"/><path d="M17.05830802098205,40.60693319550011A44.044396875,44.044396875,0,0,1,15.244517027128138,41.32207154405633L14.37176664347019,38.95637811280891A41.52285,41.52285,0,0,0,16.081717890683105,38.28218151839028Z" fill="rgb(24, 24, 24)"/><path d="M13.819739691475908,41.820134994310514A44.044396875,44.044396875,0,0,1,11.95543090178588,42.3907604087864L11.270981083680008,39.96388441497932A41.52285,41.52285,0,0,0,13.028557977006024,39.42592737225458Z" fill="rgb(43, 43, 43)"/><path d="M12.167234378115136,42.330453619947455A44.044396875,44.044396875,0,0,1,10.281960254298278,42.82744668330742L9.693316826584184,40.37557034918466A41.52285,41.52285,0,0,0,11.470658786204984,39.90703019685827Z" fill="rgb(53, 53, 53)"/><path d="M10.495968071242036,42.77550175427492A44.044396875,44.044396875,0,0,1,8.592635569349914,43.19809613923804L8.100706177527401,40.725000080391276A41.52285,41.52285,0,0,0,9.895072670965536,40.32659927341767Z" fill="rgb(62, 62, 62)"/><path d="M5.395493665605849,43.71267029348489A44.044396875,44.044396875,0,0,1,3.455683550690822,43.90862269850871L3.2578452630429484,41.39484891100061A41.52285,41.52285,0,0,0,5.086601021889956,41.210114804094005Z" fill="rgb(91, 91, 91)"/><path d="M3.675182553467139,43.8907954961083A44.044396875,44.044396875,0,0,1,1.7291749065318096,44.010440241210155L1.6301794407914538,41.4908373874681A41.52285,41.52285,0,0,0,3.464777922225391,41.378042318023695Z" fill="rgb(101, 101, 101)"/><path d="M1.9492045762135095,44.001244273345016A44.044396875,44.044396875,0,0,1,2.6969414826672217e-15,44.044396875L2.5425412671987836e-15,41.52285A41.52285,41.52285,0,0,0,1.837612386136849,41.48216788983932Z" fill="rgb(110, 110, 110)"/><path d="M17.821884236295013,42.42460985644138A46.01594375,46.01594375,0,0,1,15.926903029393468,43.17175974054638L15.054152645735519,40.80606630929896A43.494396875,43.494396875,0,0,0,16.845294105996068,40.099858179331555Z" fill="#fdf151"/><path d="M16.14256184281255,43.091585911336985A46.01594375,46.01594375,0,0,1,14.219708630951668,43.76376315690874L13.440507794463626,41.365629570296306A43.494396875,43.494396875,0,0,0,15.257993950640651,40.730285784931866Z" fill="rgb(110, 110, 110)"/><path d="M12.711872847876576,44.225279737979974A46.01594375,46.01594375,0,0,1,10.742208731891628,44.74451956121146L10.153565304177532,42.2926432270887A43.494396875,43.494396875,0,0,0,12.015297255966424,41.80185631489079Z" fill="rgb(91, 91, 91)"/><path d="M10.965796120191952,44.69024943601844A46.01594375,46.01594375,0,0,1,8.977265284063556,45.131760293863024L8.485335892241045,42.65866423501626A43.494396875,43.494396875,0,0,0,10.364900719915452,42.24134695516119Z" fill="rgb(82, 82, 82)"/><path d="M9.202810929706768,45.08631000864047A46.01594375,46.01594375,0,0,1,7.198479543852607,45.4494111233567L6.804022707388117,42.9589086746551A43.494396875,43.494396875,0,0,0,8.698522258217379,42.61570450014063Z" fill="rgb(72, 72, 72)"/><path d="M7.425635671801,45.4128507591501A46.01594375,46.01594375,0,0,1,5.408594269941263,45.696982255137186L5.112218212685819,43.19291359084142A43.494396875,43.494396875,0,0,0,7.018731305678588,42.92435171762874Z" fill="rgb(62, 62, 62)"/><path d="M5.6370106219101235,45.66936818537822A46.01594375,46.01594375,0,0,1,3.6103693356883806,45.874091952463594L3.4125310480405076,43.360318164955494A43.494396875,43.494396875,0,0,0,5.328117978194232,43.16681269598733Z" fill="rgb(53, 53, 53)"/><path d="M2.0364562691331765,45.970859520647124A46.01594375,46.01594375,0,0,1,2.8176639111591074e-15,46.01594375L2.6632636956906697e-15,43.494396875A43.494396875,43.494396875,0,0,0,1.9248640790565161,43.45178313714142Z" fill="rgb(34, 34, 34)"/><path d="M32.749727977604316,35.074985016067835A47.98749062499999,47.98749062499999,0,0,1,31.16538213066925,36.489974145425535L29.52776843392743,34.57257485913543A45.46594375,45.46594375,0,0,0,31.028863369693223,33.231937636302135Z" fill="rgb(34, 34, 34)"/><path d="M29.896819888890125,37.5363745854035A47.98749062499999,47.98749062499999,0,0,1,28.206339283898316,38.82269543303346L26.72421121780915,36.78272115904542A45.46594375,45.46594375,0,0,0,28.325863963055685,35.56399122461689Z" fill="rgb(53, 53, 53)"/><path d="M26.85958796385946,39.76633992330898A47.98749062499999,47.98749062499999,0,0,1,25.07339497588255,40.91606189344045L23.75589035283107,38.76608975151391A45.46594375,45.46594375,0,0,0,25.448226185780296,37.67678098080474Z" fill="rgb(72, 72, 72)"/><path d="M25.277661016148617,40.79018399121463A47.98749062499999,47.98749062499999,0,0,1,23.447707245510998,41.86889395975577L22.215625880955734,39.66885437967139A45.46594375,45.46594375,0,0,0,23.94942304595201,38.64682621955116Z" fill="rgb(82, 82, 82)"/><path d="M23.656757747312266,41.75113255193736A47.98749062499999,47.98749062499999,0,0,1,21.785864850090565,42.75716722630313L20.641106524192626,40.51045250963134A45.46594375,45.46594375,0,0,0,22.413691631675654,39.55728085344488Z" fill="rgb(91, 91, 91)"/><path d="M21.999377472705586,42.64770389244744A47.98749062499999,47.98749062499999,0,0,1,20.0904302301423,43.57951204008882L19.03476007726648,41.289586458077615A45.46594375,45.46594375,0,0,0,20.843399929480046,40.406741027431494Z" fill="rgb(101, 101, 101)"/><path d="M20.308075752582667,43.47851556472261A47.98749062499999,47.98749062499999,0,0,1,18.364017622962567,44.334660405014745L17.399063409968104,42.00505485693446A45.46594375,45.46594375,0,0,0,19.240969215352933,41.19389693549282Z" fill="rgb(110, 110, 110)"/><path d="M35.50256375406931,35.1493014840217A49.959037499999994,49.959037499999994,0,0,1,33.9122319011082,36.6860457859915L32.200604002461944,34.834417157081795A47.437490624999995,47.437490624999995,0,0,0,33.71066816984069,33.375235854445314Z" fill="rgb(24, 24, 24)"/><path d="M34.095237463730854,36.51602675837295A49.959037499999994,49.959037499999994,0,0,1,32.44579940082948,37.98915015063563L30.808185704087652,36.07175086434552A47.437490624999995,47.437490624999995,0,0,0,32.37437285581976,34.672979378607245Z" fill="rgb(34, 34, 34)"/><path d="M31.12511878630469,39.07854153451518A49.959037499999994,49.959037499999994,0,0,1,29.365185461226627,40.41771036011528L27.883057395137456,38.377736086127236A47.437490624999995,47.437490624999995,0,0,0,29.554162860470242,37.10615817372857Z" fill="rgb(53, 53, 53)"/><path d="M29.566906106939072,40.270379824256125A49.959037499999994,49.959037499999994,0,0,1,27.75575410531004,41.53942154113332L26.354857720396442,39.44283193857438A47.437490624999995,47.437490624999995,0,0,0,28.0745967385416,38.2378416593462Z" fill="rgb(62, 62, 62)"/><path d="M27.963103401408656,41.400124107163414A49.959037499999994,49.959037499999994,0,0,1,26.103525388340266,42.59708194497225L24.78602076528878,40.447109803045706A47.437490624999995,47.437490624999995,0,0,0,26.551741623329487,39.31056516465917Z" fill="rgb(72, 72, 72)"/><path d="M24.628686185367485,43.466461147752696A49.959037499999994,49.959037499999994,0,0,1,22.680928401131755,44.51382835467132L21.536170075233816,42.26711363799953A47.437490624999995,47.437490624999995,0,0,0,23.38562006973087,41.272609449260216Z" fill="rgb(91, 91, 91)"/><path d="M22.90321310452048,44.3998677634892A49.959037499999994,49.959037499999994,0,0,1,20.915837527372535,45.36995887649624L19.860167374496715,43.08003329448503A47.437490624999995,47.437490624999995,0,0,0,21.74723556129494,42.158904898473246Z" fill="rgb(101, 101, 101)"/><path d="M21.14242492912429,45.264813001301015A49.959037499999994,49.959037499999994,0,0,1,19.118495948156234,46.15613221021384L18.15354173516177,43.826526662133546A47.437490624999995,47.437490624999995,0,0,0,20.075318391894555,42.980194372071225Z" fill="rgb(110, 110, 110)"/><path d="M15.05695788653345,45.56410073388501A47.98749062499999,47.98749062499999,0,0,1,13.025746043146043,46.185811636301544L12.341296225040171,43.75893564249447A45.46594375,45.46594375,0,0,0,14.265776172063568,43.169893111829076Z" fill="rgb(43, 43, 43)"/><path d="M13.256511317638012,46.120105856012486A47.98749062499999,47.98749062499999,0,0,1,11.202457209484974,46.661592439115495L10.61381378177088,44.209716104992744A45.46594375,45.46594375,0,0,0,12.559935725727861,43.69668243292331Z" fill="rgb(53, 53, 53)"/><path d="M11.435624169141866,46.604997117761954A47.98749062499999,47.98749062499999,0,0,1,9.361894998777197,47.06542444848801L8.869965606954686,44.59232838964125A45.46594375,45.46594375,0,0,0,10.834728768865368,44.15609463690471Z" fill="rgb(62, 62, 62)"/><path d="M9.597104117047497,47.018026851953415A47.98749062499999,47.98749062499999,0,0,1,7.50689742454497,47.396684984730975L7.112440588080481,44.90618253602938A45.46594375,45.46594375,0,0,0,9.09281544555811,44.547421343453586Z" fill="rgb(72, 72, 72)"/><path d="M7.743786026016603,47.35855819667373A47.98749062499999,47.98749062499999,0,0,1,5.640324758594895,47.65486326810773L5.343948701339452,45.150794603811974A45.46594375,45.46594375,0,0,0,7.336881659894192,44.87005915515236Z" fill="#fdf151"/><path d="M5.878527578214397,47.62606607727154A47.98749062499999,47.98749062499999,0,0,1,3.765055120685939,47.839561206418466L3.5672168330380662,45.32578741891037A45.46594375,45.46594375,0,0,0,5.569634934498507,45.12351058788066Z" fill="rgb(91, 91, 91)"/><path d="M4.004204866970786,47.820138015984334A47.98749062499999,47.98749062499999,0,0,1,1.8839800406775455,47.950494008829466L1.78498457493719,45.43089115508742A45.46594375,45.46594375,0,0,0,3.7938002357290386,45.30738483789973Z" fill="rgb(101, 101, 101)"/><path d="M2.123707962052843,47.94047476794922A47.98749062499999,47.98749062499999,0,0,1,2.9383863396509932e-15,47.98749062499999L2.7839861241825555e-15,45.46594375A45.46594375,45.46594375,0,0,0,2.012115771976183,45.42139838444353Z" fill="rgb(110, 110, 110)"/><path d="M19.349036666920938,46.05996317832391A49.959037499999994,49.959037499999994,0,0,1,17.291675033924122,46.87113613352647L16.418924650266174,44.505442702279055A47.437490624999995,47.437490624999995,0,0,0,18.372446536621993,43.73521150121409Z" fill="rgb(120, 120, 120)"/><path d="M17.525813592623347,46.78409223061856A49.959037499999994,49.959037499999994,0,0,1,15.43819161011531,47.51386816220892L14.658990773627266,45.1157345755965A47.437490624999995,47.437490624999995,0,0,0,16.641245700451446,44.42279210421344Z" fill="rgb(110, 110, 110)"/><path d="M15.675566984062222,47.43608360367226A49.959037499999994,49.959037499999994,0,0,1,13.560903613826124,48.08333725005912L12.876453795720252,45.656461256252044A47.437490624999995,47.437490624999995,0,0,0,14.884385269592336,45.04187598161632Z" fill="rgb(101, 101, 101)"/><path d="M11.905452218091781,48.519744799505474A49.959037499999994,49.959037499999994,0,0,1,9.746524713490839,48.999088603112995L9.254595321668328,46.52599254426624A47.437490624999995,47.437490624999995,0,0,0,11.304556817815282,46.070842318648225Z" fill="rgb(82, 82, 82)"/><path d="M9.991397304388226,48.94974369526636A49.959037499999994,49.959037499999994,0,0,1,7.815315305237335,49.34395884610525L7.420858468772844,46.85345639740365A47.437490624999995,47.437490624999995,0,0,0,9.487108632898838,46.479138186766534Z" fill="rgb(72, 72, 72)"/><path d="M8.061936380232206,49.30426563419735A49.959037499999994,49.959037499999994,0,0,1,5.872055247248529,49.61274428107829L5.575679189993084,47.10867561678253A47.437490624999995,47.437490624999995,0,0,0,7.6550320141097945,46.815766592675985Z" fill="rgb(62, 62, 62)"/><path d="M6.120044534518672,49.582763969164866A49.959037499999994,49.959037499999994,0,0,1,3.9197409056834975,49.80503046037335L3.7219026180356245,47.29125667286525A47.437490624999995,47.437490624999995,0,0,0,5.811151890802781,47.08020847977398Z" fill="rgb(53, 53, 53)"/><path d="M4.16871602372261,49.78480927592235A49.959037499999994,49.959037499999994,0,0,1,1.9613826077504137,49.920520892639125L1.8623871420100577,47.400918038897075A47.437490624999995,47.437490624999995,0,0,0,3.9583113924808617,47.27205609783775Z" fill="#fdf151"/><path d="M2.2109596549725103,49.91009001525132A49.959037499999994,49.959037499999994,0,0,1,3.059108768142879e-15,49.959037499999994L2.904708552674441e-15,47.437490624999995A47.437490624999995,47.437490624999995,0,0,0,2.0993674648958502,47.39101363174562Z" fill="rgb(34, 34, 34)"/><path d="M57.17758487553128,8.763209634719571A57.845225,57.845225,0,0,1,55.01407817280932,17.875157568442578L46.9907870782466,15.268232263209075A49.4090375,49.4090375,0,0,0,48.838766471641485,7.4851770990988555Z" fill="rgb(110, 110, 110)"/><path d="M55.10276591370838,17.599864884699617A57.845225,57.845225,0,0,1,51.540472868144086,26.261182605296522L44.02377476636772,22.431233626275002A49.4090375,49.4090375,0,0,0,47.06654053786011,15.033088454285664Z" fill="rgb(101, 101, 101)"/><path d="M51.67113397949462,26.003153050615637A57.845225,57.845225,0,0,1,46.79777006844257,34.00057017053987L39.97275101320906,29.041903572465763A49.4090375,49.4090375,0,0,0,44.135380171144185,22.210835279767817Z" fill="rgb(91, 91, 91)"/><path d="M46.96718724004377,33.76615728890829A57.845225,57.845225,0,0,1,40.902750856761614,40.90275085676161L34.93746546815042,34.937465468150414A49.4090375,49.4090375,0,0,0,40.11746026768578,28.841677627125968Z" fill="rgb(82, 82, 82)"/><path d="M41.106752475585296,40.69772667129685A57.845225,57.845225,0,0,1,34.00057017053988,46.79777006844256L29.04190357246577,39.97275101320906A49.4090375,49.4090375,0,0,0,35.11171535021969,34.7623421512641Z" fill="rgb(72, 72, 72)"/><path d="M26.51855563178003,51.40852324765624A57.845225,57.845225,0,0,1,17.875157568442546,55.01407817280933L15.268232263209047,46.990787078246605A49.4090375,49.4090375,0,0,0,22.65107119310981,43.91106876951501Z" fill="rgb(53, 53, 53)"/><path d="M18.15000337417731,54.92401508282126A57.845225,57.845225,0,0,1,9.048986828006791,57.13305429160238L7.729276349465208,48.80073025877793A49.4090375,49.4090375,0,0,0,15.502994367121108,46.913858851403575Z" fill="rgb(43, 43, 43)"/><path d="M22.614285133766263,-55.377254404985706A59.816771875,59.816771875,0,0,1,25.042874013523715,-54.32219305853336L23.98720386064789,-52.032267476522144A57.295225,57.295225,0,0,0,21.660990961881346,-53.042853225952314Z" fill="rgb(120, 120, 120)"/><path d="M32.98332438027727,-49.90136782064394A59.816771875,59.816771875,0,0,1,35.159416347868195,-48.39278499552439L33.67728828177902,-46.35281072153634A57.295225,57.295225,0,0,0,31.592928410865895,-47.79779997266117Z" fill="rgb(72, 72, 72)"/><path d="M40.383538704265426,-44.12727047152233A59.816771875,59.816771875,0,0,1,42.296845021501255,-42.296845021501255L40.51384212710901,-40.51384212710901A57.295225,57.295225,0,0,0,38.68119030549233,-42.2671068840879Z" fill="rgb(34, 34, 34)"/><path d="M27.775691238066305,-55.193362918010415A61.788318749999995,61.788318749999995,0,0,1,30.19108501763458,-53.91006139311624L28.959003653079318,-51.71002181303185A59.266771875,59.266771875,0,0,0,26.642180748394487,-52.94095251743369Z" fill="rgb(43, 43, 43)"/><path d="M34.07044707297184,-51.546105286427085A61.788318749999995,61.788318749999995,0,0,1,36.3182625251965,-49.9877999226062L34.836134459107335,-47.94782564861816A59.266771875,59.266771875,0,0,0,32.680051103560466,-49.44253743844432Z" fill="rgb(72, 72, 72)"/><path d="M38.0096800641481,-48.7140693780832A61.788318749999995,61.788318749999995,0,0,1,40.1283030217908,-46.98420618189623L38.490689325048976,-45.06680689560613A59.266771875,59.266771875,0,0,0,36.45852619033433,-46.72607533820915Z" fill="rgb(91, 91, 91)"/><path d="M7.177486753172911,-63.35459058683975A63.759865624999996,63.759865624999996,0,0,1,9.974240470083883,-62.97487587572521L9.579783633619392,-60.48437342702361A61.23831875,61.23831875,0,0,0,6.8936346917639115,-60.84907134922529Z" fill="rgb(53, 53, 53)"/><path d="M12.126104844529253,-62.59615040733368A63.759865624999996,63.759865624999996,0,0,1,14.884445030231761,-61.9981754623478L14.295801602517667,-59.546299128225044A61.23831875,61.23831875,0,0,0,11.646547030582793,-60.12062562541265Z" fill="rgb(72, 72, 72)"/><path d="M14.574269389371809,-62.071822401827994A63.759865624999996,63.759865624999996,0,0,1,17.307006608586686,-61.36601654636215L16.622556790480814,-58.93914055255507A61.23831875,61.23831875,0,0,0,13.997892650275151,-59.617033511220384Z" fill="rgb(82, 82, 82)"/><path d="M15.02492678942062,-63.99117254917045A65.73141249999999,65.73141249999999,0,0,1,17.842164179266767,-63.26354216011972L17.157714361160895,-60.83666616631265A63.209865625,63.209865625,0,0,0,14.448550050323963,-61.53638365856284Z" fill="rgb(82, 82, 82)"/><path d="M19.99929948721706,-62.61506695090052A65.73141249999999,65.73141249999999,0,0,1,22.750763052046736,-61.668641705446866L21.878012668388788,-59.30294827419946A63.209865625,63.209865625,0,0,0,19.232099008691193,-60.21306735294637Z" fill="rgb(101, 101, 101)"/><path d="M30.875885287984172,-55.785304267354306A63.759865624999996,63.759865624999996,0,0,1,33.31443827554427,-54.36422230569483L31.996933652492782,-52.214250163768284A61.23831875,61.23831875,0,0,0,29.6548194764802,-53.57913180655293Z" fill="rgb(91, 91, 91)"/><path d="M43.04560277218989,-47.03611959438081A63.759865624999996,63.759865624999996,0,0,1,45.085033350980545,-45.08503335098054L43.302030456588305,-43.3020304565883A61.23831875,61.23831875,0,0,0,41.34325437341679,-45.17595600694638Z" fill="rgb(34, 34, 34)"/><path d="M42.43869219934381,-50.19537821009529A65.73141249999999,65.73141249999999,0,0,1,44.61853180993332,-48.26805577575218L42.90690391128707,-46.41642714684248A63.209865625,63.209865625,0,0,0,40.81068592921624,-48.26981485687953Z" fill="rgb(101, 101, 101)"/><path d="M46.78297820143884,-40.36272147112109A61.788318749999995,61.788318749999995,0,0,1,49.98779992260621,-36.31826252519649L46.35281072153635,-33.677288281779006A57.295225,57.295225,0,0,0,43.38103571108307,-37.427644174251206Z" fill="rgb(110, 110, 110)"/><path d="M49.80558452041248,-36.567746506062555A61.788318749999995,61.788318749999995,0,0,1,52.683202254163035,-32.284307863086546L48.8522100607047,-29.93667282757735A57.295225,57.295225,0,0,0,46.18384557280984,-33.90863040447784Z" fill="rgb(101, 101, 101)"/><path d="M56.966023143971526,-23.930493958798714A61.788318749999995,61.788318749999995,0,0,1,58.76418317810951,-19.093640547606206L54.49099708884699,-17.705198221536346A57.295225,57.295225,0,0,0,52.823594805920436,-22.190327613186806Z" fill="rgb(72, 72, 72)"/><path d="M55.87281966522762,-34.624364425966135A65.73141249999999,65.73141249999999,0,0,1,58.56711738161683,-29.841436809461285L54.563741536576856,-27.801614932522156A61.23831875,61.23831875,0,0,0,52.05361348534048,-32.25760385467869Z" fill="rgb(53, 53, 53)"/><path d="M60.60137646585406,-25.45764638942464A65.73141249999999,65.73141249999999,0,0,1,62.5142881834097,-20.312123526769845L58.24110209414718,-18.923681200699985A61.23831875,61.23831875,0,0,0,56.45894812780297,-23.71748004381273Z" fill="rgb(72, 72, 72)"/><path d="M62.41194656197025,-20.624439764292386A65.73141249999999,65.73141249999999,0,0,1,63.91524834025184,-15.344693507825093L59.54629912822505,-14.29580160251765A61.23831875,61.23831875,0,0,0,58.145756070127064,-19.214648952293736Z" fill="rgb(82, 82, 82)"/><path d="M63.83772625345363,-15.664076609691088A65.73141249999999,65.73141249999999,0,0,1,64.92214973709949,-10.282658350776229L60.48437342702361,-9.579783633619375A61.23831875,61.23831875,0,0,0,59.47407609085287,-14.593353160464675Z" fill="rgb(91, 91, 91)"/><path d="M64.86992513438635,-10.60713921395703A65.73141249999999,65.73141249999999,0,0,1,65.52878449201239,-5.157227185663963L61.04954145054941,-4.804703113018531A61.23831875,61.23831875,0,0,0,60.43571865534136,-9.882084493619017Z" fill="rgb(101, 101, 101)"/><path d="M4.974376709286423,-67.51996952374171A67.70295937499999,67.70295937499999,0,0,1,7.957629645131213,-67.2336733978133L7.66125358787577,-64.72960473351753A65.1814125,65.1814125,0,0,0,4.789109711179312,-65.00523797102387Z" fill="rgb(101, 101, 101)"/><path d="M18.051288052554703,-65.25213948811636A67.70295937499999,67.70295937499999,0,0,1,20.92136501635167,-64.3893406860598L20.142164179863627,-61.991207099447365A65.1814125,65.1814125,0,0,0,17.378981119462914,-62.82187159536483Z" fill="rgb(53, 53, 53)"/><path d="M35.08562680822733,-57.90241359051192A67.70295937499999,67.70295937499999,0,0,1,37.61374891608541,-56.29295338326621L36.21285253117181,-54.196363780707266A65.1814125,65.1814125,0,0,0,33.77888846986792,-55.74588082751388Z" fill="rgb(62, 62, 62)"/><path d="M28.85317505856602,-63.419485256670384A69.67450625,69.67450625,0,0,1,31.631563911543672,-62.0804396383532L30.486805585645733,-59.83372492168141A67.152959375,67.152959375,0,0,0,27.808967681742953,-61.12430996989803Z" fill="rgb(110, 110, 110)"/><path d="M31.320767612967636,-62.23782079504202A69.67450625,69.67450625,0,0,1,34.04444374456235,-60.79072849789364L32.81236238000708,-58.59068891780925A67.152959375,67.152959375,0,0,0,30.187257123295815,-59.9854103944653Z" fill="rgb(101, 101, 101)"/><path d="M42.86094434621572,-54.93155988074513A69.67450625,69.67450625,0,0,1,45.249972102431684,-52.980910202736624L43.61235840568986,-51.06351091644651A67.152959375,67.152959375,0,0,0,41.30979047240195,-52.94356584087106Z" fill="rgb(53, 53, 53)"/><path d="M5.264089801499874,-71.45240574642723A71.646053125,71.646053125,0,0,1,8.421090622438479,-71.14943542375443L8.124714565183035,-68.64536675945865A69.12450625,69.12450625,0,0,0,5.078822803392762,-68.9376741937094Z" fill="rgb(101, 101, 101)"/><path d="M11.152631208624927,-72.76791770336983A73.6176,73.6176,0,0,1,14.362081290054526,-72.20305845861286L13.870151898232015,-69.7299623997661A71.096053125,71.096053125,0,0,0,10.770631763218724,-70.2754741099195Z" fill="rgb(62, 62, 62)"/><path d="M22.398734089734504,-70.12736798809267A73.6176,73.6176,0,0,1,25.48030706110805,-69.06739449140707L24.6075566774501,-66.70170106015965A71.096053125,71.096053125,0,0,0,21.631533611208635,-67.72536839013851Z" fill="rgb(101, 101, 101)"/><path d="M37.1290517494632,-61.274712929364306A71.646053125,71.646053125,0,0,1,39.80441442959105,-59.5715160148513L38.403518044677455,-57.474926412292355A69.12450625,69.12450625,0,0,0,35.82231341110379,-59.118180166366265Z" fill="rgb(82, 82, 82)"/><path d="M48.36973090803881,-52.853817840097754A71.646053125,71.646053125,0,0,1,50.66141000993913,-50.661410009939125L48.878407115546885,-48.87840711554688A69.12450625,69.12450625,0,0,0,46.667382509265714,-50.993654252663326Z" fill="rgb(34, 34, 34)"/><path d="M35.64951949781816,-64.41011402982207A73.6176,73.6176,0,0,1,38.46509033783284,-62.76932256335381L37.14758571478135,-60.619350421427264A71.096053125,71.096053125,0,0,0,34.42845368631419,-62.20394156902069Z" fill="rgb(91, 91, 91)"/><path d="M42.97301049191069,-59.77350080949026A73.6176,73.6176,0,0,1,45.57621072271165,-57.81314769080632L44.015136309498025,-55.832934237859384A71.096053125,71.096053125,0,0,0,41.50110078125427,-57.726141425674705Z" fill="rgb(62, 62, 62)"/><path d="M47.63325815539077,-48.11198837748028A67.70295937499999,67.70295937499999,0,0,1,49.71580702447227,-45.95681929853646L47.864178395562554,-44.245191399890196A65.1814125,65.1814125,0,0,0,45.859192525814386,-46.32009279325167Z" fill="rgb(120, 120, 120)"/><path d="M54.57318686849065,-40.06816670562429A67.70295937499999,67.70295937499999,0,0,1,56.292953383266216,-37.613748916085406L54.19636378070727,-36.212852531171805A65.1814125,65.1814125,0,0,0,52.54064870358073,-38.57585733722682Z" fill="rgb(82, 82, 82)"/><path d="M57.54866807345128,-35.662887027056975A67.70295937499999,67.70295937499999,0,0,1,59.07056172169929,-33.0811040628304L56.870522141614906,-31.849022698275135A65.1814125,65.1814125,0,0,0,55.4053103017878,-34.334649056860364Z" fill="rgb(62, 62, 62)"/><path d="M58.90441851009072,-33.37604212786442A67.70295937499999,67.70295937499999,0,0,1,60.32377850998502,-30.73650036050248L58.07706379331323,-29.591742034604536A65.1814125,65.1814125,0,0,0,56.710566811598234,-32.13297601222781Z" fill="rgb(53, 53, 53)"/><path d="M50.92644418142412,-47.55033232499623A69.67450625,69.67450625,0,0,1,52.980910202736645,-45.24997210243167L51.063510916446525,-43.61235840568985A67.152959375,67.152959375,0,0,0,49.08339680165841,-45.82946771708514Z" fill="rgb(110, 110, 110)"/><path d="M54.50021102563201,-43.408107760450314A69.67450625,69.67450625,0,0,1,56.36785963093349,-40.953647234509745L54.327885356945444,-39.47151916842057A67.152959375,67.152959375,0,0,0,52.527827664845404,-41.83715183461587Z" fill="rgb(91, 91, 91)"/><path d="M57.73796594570767,-38.998257776900616A69.67450625,69.67450625,0,0,1,59.407282460290226,-36.4048295129174L57.25731031836368,-35.08732488986592A67.152959375,67.152959375,0,0,0,55.648407003203424,-37.58689599882145Z" fill="rgb(72, 72, 72)"/><path d="M63.127787367085055,-29.485916694540535A69.67450625,69.67450625,0,0,1,64.37085026220473,-26.663279200092898L62.041244714124424,-25.69832498709843A67.152959375,67.152959375,0,0,0,60.843168737855265,-28.418810157310798Z" fill="rgb(34, 34, 34)"/><path d="M63.400370667385694,-23.750446466771912A67.70295937499999,67.70295937499999,0,0,1,64.3893406860598,-20.921365016351665L61.991207099447365,-20.142164179863624A65.1814125,65.1814125,0,0,0,61.03907054098058,-22.865878574600014Z" fill="rgb(110, 110, 110)"/><path d="M65.75247393519716,-16.13390465864102A67.70295937499999,67.70295937499999,0,0,1,66.40206599473788,-13.208192145913598L63.928969935891125,-12.716262754091085A65.1814125,65.1814125,0,0,0,63.3035714543399,-15.533009258364519Z" fill="rgb(82, 82, 82)"/><path d="M66.81563257190997,-10.925289568172634A67.70295937499999,67.70295937499999,0,0,1,67.2336733978133,-7.95762964513121L64.72960473351753,-7.661253587875766A65.1814125,65.1814125,0,0,0,64.32713353038861,-10.518385202050222Z" fill="rgb(62, 62, 62)"/><path d="M67.19304499620479,-8.293697141257155A67.70295937499999,67.70295937499999,0,0,1,67.49425374596727,-5.311912970661521L64.98047995845917,-5.114074683013649A65.1814125,65.1814125,0,0,0,64.6904895068139,-7.984804497541263Z" fill="rgb(53, 53, 53)"/><path d="M67.46685061536452,-5.64931643448902A67.70295937499999,67.70295937499999,0,0,1,67.65076284692606,-2.6580057114062066L65.131159993184,-2.5590102456658514A65.1814125,65.1814125,0,0,0,64.95409743727991,-5.438911803247271Z" fill="rgb(43, 43, 43)"/><path d="M65.2466238270265,-24.44207234167731A69.67450625,69.67450625,0,0,1,66.26439318870989,-21.530606505933484L63.866259602097465,-20.751405669445443A67.152959375,67.152959375,0,0,0,62.88532370062137,-23.557504449505412Z" fill="rgb(34, 34, 34)"/><path d="M66.15591230154475,-21.86165795934993A69.67450625,69.67450625,0,0,1,67.05859338763487,-18.912479320626925L64.63171739382778,-18.228029502521053A67.152959375,67.152959375,0,0,0,63.76170467948881,-21.070476244880048Z" fill="rgb(43, 43, 43)"/><path d="M68.26691212839589,-13.934329177795503A69.67450625,69.67450625,0,0,1,68.81669745984804,-10.899494112160971L66.32619501114644,-10.50503727569648A67.152959375,67.152959375,0,0,0,65.79630661989606,-13.430040506306115Z" fill="rgb(72, 72, 72)"/><path d="M69.43152187530254,-5.813827591240843A69.67450625,69.67450625,0,0,1,69.62078973073572,-2.735408278479074L67.10118687699367,-2.636412812738719A67.152959375,67.152959375,0,0,0,66.91876869721794,-5.6034229599990955Z" fill="rgb(101, 101, 101)"/><path d="M69.60624248827233,-3.0834765841691922A69.67450625,69.67450625,0,0,1,69.67450625,0L67.152959375,0A67.152959375,67.152959375,0,0,0,67.08716610476664,-2.9718843940925317Z" fill="rgb(110, 110, 110)"/><path d="M55.739509436680436,-48.090104153746765A73.6176,73.6176,0,0,1,59.55788948509713,-43.27133958916636L55.922900284027264,-40.63036534574888A69.12450625,69.12450625,0,0,0,52.337566946324664,-45.15502685687688Z" fill="rgb(34, 34, 34)"/><path d="M65.4258342159903,-33.74924068629919A73.6176,73.6176,0,0,1,68.0137938726029,-28.17223585048023L63.86271651932351,-26.4528033122921A69.12450625,69.12450625,0,0,0,61.43270747993259,-31.689427511258753Z" fill="rgb(62, 62, 62)"/><path d="M73.36086439517858,-6.142849904744491A73.6176,73.6176,0,0,1,73.6176,0L69.12450625,0A69.12450625,69.12450625,0,0,0,68.88343995715596,-5.767934116750919Z" fill="rgb(110, 110, 110)"/><path d="M64.97275128945054,9.957920421672254A65.73141249999999,65.73141249999999,0,0,1,62.5142881834097,20.31212352676986L54.49099708884699,17.70519822153636A57.295225,57.295225,0,0,0,56.63393288556077,8.67988788605154Z" fill="rgb(110, 110, 110)"/><path d="M62.61506695090052,19.999299487217055A65.73141249999999,65.73141249999999,0,0,1,58.56711738161683,29.841436809461285L51.05041927984048,26.011487830439773A57.295225,57.295225,0,0,0,54.57884157505226,17.43252305680311Z" fill="rgb(101, 101, 101)"/><path d="M58.715591856526224,29.548229425516965A65.73141249999999,65.73141249999999,0,0,1,53.17782977676984,38.63595487985312L46.35281072153635,33.67728828177901A57.295225,57.295225,0,0,0,51.179838048175796,25.755911654669152Z" fill="rgb(91, 91, 91)"/><path d="M53.370344024767014,38.36958389040948A65.73141249999999,65.73141249999999,0,0,1,46.479127515720194,46.47912751572019L40.51384212710901,40.51384212710901A57.295225,57.295225,0,0,0,46.52061705240903,33.44510422862717Z" fill="rgb(82, 82, 82)"/><path d="M46.710941197101285,46.246151858571984A65.73141249999999,65.73141249999999,0,0,1,38.635954879853124,53.17782977676983L33.67728828177902,46.35281072153634A57.295225,57.295225,0,0,0,40.715904071735686,40.31076733853925Z" fill="rgb(72, 72, 72)"/><path d="M38.90135997243704,52.98398608579793A65.73141249999999,65.73141249999999,0,0,1,29.841436809461264,58.56711738161684L26.011487830439755,51.05041927984049A57.295225,57.295225,0,0,0,33.90863040447784,46.18384557280984Z" fill="rgb(62, 62, 62)"/><path d="M30.13389815903959,58.41717873182327A65.73141249999999,65.73141249999999,0,0,1,20.31212352676982,62.514288183409704L17.705198221536328,54.490997088846996A57.295225,57.295225,0,0,0,26.266413720369382,50.91972425368205Z" fill="rgb(53, 53, 53)"/><path d="M20.62443976429239,62.41194656197025A65.73141249999999,65.73141249999999,0,0,1,10.282658350776247,64.92214973709949L8.962947872234665,56.58982570427506A57.295225,57.295225,0,0,0,17.977430757236196,54.40179033055257Z" fill="rgb(43, 43, 43)"/><path d="M10.607139213957035,64.86992513438635A65.73141249999999,65.73141249999999,0,0,1,4.024888196077965e-15,65.73141249999999L3.5083206951338705e-15,57.295225A57.295225,57.295225,0,0,0,9.245783785187813,56.544303780294115Z" fill="rgb(34, 34, 34)"/><path d="M67.51996952374171,4.974376709286419A67.70295937499999,67.70295937499999,0,0,1,67.2336733978133,7.95762964513121L64.72960473351753,7.661253587875766A65.1814125,65.1814125,0,0,0,65.00523797102387,4.789109711179308Z" fill="rgb(101, 101, 101)"/><path d="M67.27262096108862,7.621363208678593A67.70295937499999,67.70295937499999,0,0,1,66.86942359847377,10.591076231468591L64.37892114977217,10.196619395004102A65.1814125,65.1814125,0,0,0,64.76710172347417,7.337511147269594Z" fill="rgb(91, 91, 91)"/><path d="M66.92154289293038,10.256598118410425A67.70295937499999,67.70295937499999,0,0,1,66.40206599473788,13.208192145913598L63.928969935891125,12.716262754091085A65.1814125,65.1814125,0,0,0,64.42909929948004,9.874598673004222Z" fill="rgb(82, 82, 82)"/><path d="M66.4672766562014,12.8760180972567A67.70295937499999,67.70295937499999,0,0,1,65.83232121815588,15.804941985418441L63.38044488403312,15.216298557704345A65.1814125,65.1814125,0,0,0,63.99175187428038,12.396460283310239Z" fill="rgb(72, 72, 72)"/><path d="M65.91052269651291,15.475584189469414A67.70295937499999,67.70295937499999,0,0,1,65.1610677738773,18.37732174994683L62.73419178007022,17.69287193184096A65.1814125,65.1814125,0,0,0,63.4557338059053,14.899207450372757Z" fill="rgb(62, 62, 62)"/><path d="M63.63470118154882,23.11526581434634A67.70295937499999,67.70295937499999,0,0,1,62.54937845700563,25.90880087489923L60.219772908925336,24.943846661904765A65.1814125,65.1814125,0,0,0,61.26467358767168,22.254354757916477Z" fill="rgb(34, 34, 34)"/><path d="M69.67363532048631,-0.3483710796995934A69.67450625,69.67450625,0,0,1,69.62078973073572,2.7354082784790585L67.10118687699367,2.636412812738704A67.152959375,67.152959375,0,0,0,67.15211996475658,-0.3357633978567546Z" fill="rgb(24, 24, 24)"/><path d="M69.63359645708192,2.3872715877244475A69.67450625,69.67450625,0,0,1,69.45972299992215,5.4665987556590645L66.94594921241405,5.268760468011192A67.152959375,67.152959375,0,0,0,67.11353012304362,2.300875321201886Z" fill="rgb(34, 34, 34)"/><path d="M69.23163614821306,7.843301436431437A69.67450625,69.67450625,0,0,1,68.81669745984804,10.899494112160955L66.32619501114644,10.505037275696466A67.152959375,67.152959375,0,0,0,66.7261169105986,7.559449375022438Z" fill="rgb(53, 53, 53)"/><path d="M67.82987284385537,15.926241589518225A69.67450625,69.67450625,0,0,1,67.05859338763487,18.91247932062691L64.6317173938278,18.22802950252104A67.152959375,67.152959375,0,0,0,65.37508395324775,15.349864850421568Z" fill="rgb(82, 82, 82)"/><path d="M65.48777817277956,23.788394884357082A69.67450625,69.67450625,0,0,1,64.37085026220473,26.663279200092898L62.041244714124424,25.69832498709843A67.152959375,67.152959375,0,0,0,63.11775057890241,22.927483827927222Z" fill="rgb(110, 110, 110)"/><path d="M62.678140056012296,25.5957314263884A67.70295937499999,67.70295937499999,0,0,1,61.48398040416304,28.34450320244464L59.19405482215183,27.288833049568815A65.1814125,65.1814125,0,0,0,60.3437388769789,24.642437254503484Z" fill="rgb(120, 120, 120)"/><path d="M61.62493378151161,28.036730275786592A67.70295937499999,67.70295937499999,0,0,1,60.32377850998503,30.73650036050245L58.07706379331324,29.59174203460451A65.1814125,65.1814125,0,0,0,59.32975849473926,26.992522898963525Z" fill="rgb(110, 110, 110)"/><path d="M59.23522817234141,32.78533897191776A67.70295937499999,67.70295937499999,0,0,1,57.72626240875843,35.37469910045969L55.57629026683188,34.0571944774082A65.1814125,65.1814125,0,0,0,57.02905571154003,31.564273160413787Z" fill="rgb(91, 91, 91)"/><path d="M57.90241359051192,35.085626808227325A67.70295937499999,67.70295937499999,0,0,1,56.29295338326622,37.6137489160854L54.19636378070728,36.2128525311718A65.1814125,65.1814125,0,0,0,55.74588082751388,33.778888469867915Z" fill="rgb(82, 82, 82)"/><path d="M54.97113322094782,39.52044054078478A67.70295937499999,67.70295937499999,0,0,1,53.16828026791876,41.91449249943198L51.188066814971826,40.35341808621836A65.1814125,65.1814125,0,0,0,52.923773837132266,38.04853083012837Z" fill="rgb(62, 62, 62)"/><path d="M64.50336146876894,26.34109299954394A69.67450625,69.67450625,0,0,1,63.27442724057046,29.169910499674874L60.984501658559246,28.114240346799054A67.152959375,67.152959375,0,0,0,62.168960289735544,25.38779882765902Z" fill="rgb(24, 24, 24)"/><path d="M63.41948525667039,28.853175058566002A69.67450625,69.67450625,0,0,1,62.080439638353226,31.631563911543644L59.83372492168144,30.4868055856457A67.152959375,67.152959375,0,0,0,61.124309969898036,27.80896768174293Z" fill="rgb(34, 34, 34)"/><path d="M62.23782079504203,31.320767612967632A69.67450625,69.67450625,0,0,1,60.790728497893646,34.04444374456233L58.59068891780926,32.812362380007066A67.152959375,67.152959375,0,0,0,59.985410394465305,30.18725712329581Z" fill="rgb(43, 43, 43)"/><path d="M58.12505514955967,38.418937843750115A69.67450625,69.67450625,0,0,1,56.36785963093349,40.953647234509745L54.327885356945444,39.47151916842057A67.152959375,67.152959375,0,0,0,56.0214873015769,37.02854187433874Z" fill="rgb(72, 72, 72)"/><path d="M56.57192241712863,40.671297191160086A69.67450625,69.67450625,0,0,1,54.716569408881284,43.13506524052519L52.73635595593435,41.57399082731157A67.152959375,67.152959375,0,0,0,54.52456303331308,39.199387480503674Z" fill="rgb(82, 82, 82)"/><path d="M54.93155988074512,42.860944346215724A69.67450625,69.67450625,0,0,1,52.980910202736645,45.24997210243168L51.063510916446525,43.612358405689854A67.152959375,67.152959375,0,0,0,52.94356584087105,41.30979047240196Z" fill="rgb(91, 91, 91)"/><path d="M53.20649686054439,44.984503031712684A69.67450625,69.67450625,0,0,1,51.163558273192365,47.295106787139595L49.31192964428266,45.58347888849333A67.152959375,67.152959375,0,0,0,51.280933507328626,43.356496761585106Z" fill="rgb(101, 101, 101)"/><path d="M51.399393278668505,47.038698874076594A69.67450625,69.67450625,0,0,1,49.267315845199484,49.26731584519948L47.48431295080724,47.48431295080723A67.152959375,67.152959375,0,0,0,49.53922969123408,45.3363504753035Z" fill="rgb(110, 110, 110)"/><path d="M71.45240574642723,5.264089801499869A71.646053125,71.646053125,0,0,1,71.14943542375443,8.421090622438475L68.64536675945865,8.124714565183032A69.12450625,69.12450625,0,0,0,68.9376741937094,5.078822803392758Z" fill="rgb(43, 43, 43)"/><path d="M71.19065133533749,8.065239664184281A71.646053125,71.646053125,0,0,1,70.76397132122233,11.207911992853319L68.27346887252072,10.813455156388828A69.12450625,69.12450625,0,0,0,68.68513209772304,7.781387602775282Z" fill="rgb(53, 53, 53)"/><path d="M70.81912609989001,10.853953511886768A71.646053125,71.646053125,0,0,1,70.26939430398787,13.977451575340881L67.7962982451411,13.485522183518368A69.12450625,69.12450625,0,0,0,68.32668250643968,10.471954066480565Z" fill="rgb(62, 62, 62)"/><path d="M69.74922299119783,16.37689898956704A71.646053125,71.646053125,0,0,1,68.95611900139245,19.447636891306992L66.52924300758538,18.76318707320112A69.12450625,69.12450625,0,0,0,67.29443410059021,15.800522250470381Z" fill="rgb(82, 82, 82)"/><path d="M73.61667978191711,-0.3680864663019092A73.6176,73.6176,0,0,1,73.56084349835504,2.8902134126247927L71.04124064461298,2.791217946884438A71.096053125,71.096053125,0,0,0,71.0951644261874,-0.3554787844590704Z" fill="rgb(120, 120, 120)"/><path d="M73.14966652246193,8.287177891937125A73.6176,73.6176,0,0,1,72.71124518259661,11.516329873545683L70.22074273389501,11.121873037081192A71.096053125,71.096053125,0,0,0,70.64414728484748,8.003325830528125Z" fill="rgb(91, 91, 91)"/><path d="M72.76791770336983,11.152631208624939A73.6176,73.6176,0,0,1,72.20305845861286,14.362081290054522L69.7299623997661,13.870151898232011A71.096053125,71.096053125,0,0,0,70.2754741099195,10.770631763218736Z" fill="rgb(82, 82, 82)"/><path d="M72.27396602950303,14.000887976347856A73.6176,73.6176,0,0,1,71.583539851868,17.185687418198487L69.13166351774524,16.59704399048439A71.096053125,71.096053125,0,0,0,69.79844124758199,13.521330162401396Z" fill="rgb(72, 72, 72)"/><path d="M70.95267250243971,19.628277930616708A73.6176,73.6176,0,0,1,70.01449819401009,22.749089485097127L67.61636460739766,21.969888648609086A71.096053125,71.096053125,0,0,0,68.52240460968818,18.95597099752492Z" fill="rgb(53, 53, 53)"/><path d="M66.32858288152559,27.086454572699477A71.646053125,71.646053125,0,0,1,65.06487407697789,29.99531779690511L62.77494849496667,28.93964764402929A69.12450625,69.12450625,0,0,0,63.99418170249219,26.133160400814557Z" fill="rgb(24, 24, 24)"/><path d="M63.99893526429993,32.20703670669297A71.646053125,71.646053125,0,0,1,62.510895274088,35.007783426294274L60.31085569400361,33.775702061739004A69.12450625,69.12450625,0,0,0,61.74652486372321,31.073526217021147Z" fill="rgb(43, 43, 43)"/><path d="M62.68515207732852,34.69479265585136A71.646053125,71.646053125,0,0,1,61.08830251182202,37.43495992537512L58.938330369895475,36.11745530232363A69.12450625,69.12450625,0,0,0,60.47897961652714,33.47372684434738Z" fill="rgb(53, 53, 53)"/><path d="M58.172711613309446,41.82215384153539A71.646053125,71.646053125,0,0,1,56.26485854984381,44.3556379816184L54.284645096896874,42.79456356840478A69.12450625,69.12450625,0,0,0,56.12535222949389,40.35024413087898Z" fill="rgb(82, 82, 82)"/><path d="M56.4859325064106,44.07376041673263A71.646053125,71.646053125,0,0,1,54.48008620794674,46.530389372591905L52.56268692165663,44.89277567585008A69.12450625,69.12450625,0,0,0,54.49793846653654,42.52260654291886Z" fill="rgb(91, 91, 91)"/><path d="M54.712056185768944,46.25740844789712A71.646053125,71.646053125,0,0,1,52.61130952191245,48.63339427574273L50.759680893002745,46.921766377096475A69.12450625,69.12450625,0,0,0,52.78649283255317,44.62940217776954Z" fill="rgb(101, 101, 101)"/><path d="M52.85381784009775,48.369730908038825A71.646053125,71.646053125,0,0,1,50.66141000993913,50.661410009939125L48.878407115546885,48.87840711554688A69.12450625,69.12450625,0,0,0,50.99365425266332,46.66738250926573Z" fill="rgb(110, 110, 110)"/><path d="M68.15380429428224,27.83181614585501A73.6176,73.6176,0,0,1,66.85532091338531,30.820725094135348L64.56539533137409,29.765054941259528A71.096053125,71.096053125,0,0,0,65.81940311524885,26.87852197397009Z" fill="rgb(24, 24, 24)"/><path d="M67.00858820698795,30.48606462412482A73.6176,73.6176,0,0,1,65.5937618950896,33.421691013626024L63.34704717841782,32.276932687728085A71.096053125,71.096053125,0,0,0,64.7134129202156,29.44185724730175Z" fill="rgb(34, 34, 34)"/><path d="M64.41011402982207,35.649519497818154A73.6176,73.6176,0,0,1,62.76932256335382,38.465090337832834L60.61935042142728,37.14758571478134A71.096053125,71.096053125,0,0,0,62.20394156902069,34.428453686314185Z" fill="rgb(53, 53, 53)"/><path d="M62.960862598790506,38.15076422008113A73.6176,73.6176,0,0,1,61.21079733064386,40.89974718634385L59.114207728084914,39.49885080143026A71.096053125,71.096053125,0,0,0,60.804329835792466,36.84402588172172Z" fill="rgb(62, 62, 62)"/><path d="M61.41453008112597,40.59318322913926A73.6176,73.6176,0,0,1,59.55788948509713,43.27133958916637L57.51791521110909,41.7892115230772A71.096053125,71.096053125,0,0,0,59.310962233143194,39.20278725972789Z" fill="rgb(72, 72, 72)"/><path d="M58.04030513207608,45.28657648724953A73.6176,73.6176,0,0,1,55.979262213156844,47.81080664275213L54.06186292686673,46.1731929460103A71.096053125,71.096053125,0,0,0,56.05231109220202,43.735422613435766Z" fill="rgb(91, 91, 91)"/><path d="M48.11198837748028,47.63325815539077A67.70295937499999,67.70295937499999,0,0,1,45.95681929853648,49.715807024472255L44.245191399890224,47.86417839556254A65.1814125,65.1814125,0,0,0,46.32009279325167,45.859192525814386Z" fill="rgb(24, 24, 24)"/><path d="M46.20482283886971,49.48540243911899A67.70295937499999,67.70295937499999,0,0,1,43.969554832271484,51.481734197526514L42.33194113552966,49.5643349112364A65.1814125,65.1814125,0,0,0,44.483958230958606,47.642355059353285Z" fill="rgb(34, 34, 34)"/><path d="M44.226412812433935,51.26124381905962A67.70295937499999,67.70295937499999,0,0,1,41.91449249943201,53.16828026791874L40.35341808621839,51.188066814971805A65.1814125,65.1814125,0,0,0,42.57923262933499,49.35205653457746Z" fill="rgb(43, 43, 43)"/><path d="M40.06816670562429,54.57318686849065A67.70295937499999,67.70295937499999,0,0,1,37.613748916085406,56.29295338326622L36.212852531171805,54.19636378070728A65.1814125,65.1814125,0,0,0,38.57585733722682,52.54064870358073Z" fill="rgb(62, 62, 62)"/><path d="M37.8947423393514,56.104181761853255A67.70295937499999,67.70295937499999,0,0,1,35.374699100459694,57.726262408758416L34.05719447740821,55.576290266831876A65.1814125,65.1814125,0,0,0,36.483380561272234,54.01462281934901Z" fill="rgb(72, 72, 72)"/><path d="M33.37604212786442,58.90441851009073A67.70295937499999,67.70295937499999,0,0,1,30.736500360502482,60.32377850998501L29.59174203460454,58.07706379331322A65.1814125,65.1814125,0,0,0,32.13297601222781,56.71056681159824Z" fill="rgb(91, 91, 91)"/><path d="M31.03773379085451,60.16934260286502A67.70295937499999,67.70295937499999,0,0,1,28.344503202444667,61.48398040416303L27.288833049568847,59.19405482215181A65.1814125,65.1814125,0,0,0,29.881756247628967,57.92837973784907Z" fill="rgb(101, 101, 101)"/><path d="M28.651567517998902,61.34148993050666A67.70295937499999,67.70295937499999,0,0,1,25.908800874899235,62.54937845700563L24.943846661904768,60.219772908925336A65.1814125,65.1814125,0,0,0,27.58446098076917,59.056871301276864Z" fill="rgb(110, 110, 110)"/><path d="M45.51430992620488,52.75399902493322A69.67450625,69.67450625,0,0,1,43.13506524052522,54.71656940888126L41.573990827311604,52.73635595593433A67.152959375,67.152959375,0,0,0,43.86712974310594,50.84481174045106Z" fill="rgb(101, 101, 101)"/><path d="M43.40810776045032,54.500211025632005A69.67450625,69.67450625,0,0,1,40.95364723450975,56.36785963093348L39.47151916842058,54.32788535694544A67.152959375,67.152959375,0,0,0,41.837151834615874,52.5278276648454Z" fill="rgb(91, 91, 91)"/><path d="M41.23497343881154,56.16238765118338A69.67450625,69.67450625,0,0,1,38.709081672838224,57.93223469905877L37.30818528792462,55.835645096499825A67.152959375,67.152959375,0,0,0,39.742664070414065,54.12984948627346Z" fill="rgb(82, 82, 82)"/><path d="M38.9982577769006,57.73796594570768A69.67450625,69.67450625,0,0,1,36.40482951291741,59.40728246029022L35.087324889865926,57.25731031836367A67.152959375,67.152959375,0,0,0,37.58689599882143,55.64840700320343Z" fill="rgb(72, 72, 72)"/><path d="M36.70140962814782,59.22451648167494A69.67450625,69.67450625,0,0,1,34.044443744562365,60.79072849789363L32.812362380007094,58.59068891780924A67.152959375,67.152959375,0,0,0,35.37317165795121,57.08115871001146Z" fill="rgb(62, 62, 62)"/><path d="M34.34797056591964,60.619747105906065A69.67450625,69.67450625,0,0,1,31.631563911543672,62.0804396383532L30.486805585645733,59.83372492168141A67.152959375,67.152959375,0,0,0,33.10490445028302,58.425895407413584Z" fill="rgb(53, 53, 53)"/><path d="M31.941569422669403,61.92150647390678A69.67450625,69.67450625,0,0,1,29.169910499674906,63.274427240570446L28.114240346799082,60.98450165855923A67.152959375,67.152959375,0,0,0,30.78559187944386,59.68054360889083Z" fill="rgb(43, 43, 43)"/><path d="M29.485916694540524,63.12778736708506A69.67450625,69.67450625,0,0,1,26.6632792000929,64.37085026220473L25.698324987098434,62.041244714124424A67.152959375,67.152959375,0,0,0,28.41881015731079,60.84316873785527Z" fill="rgb(34, 34, 34)"/><path d="M26.221222604737605,62.41905312679532A67.70295937499999,67.70295937499999,0,0,1,23.43314905431208,63.51832990193691L22.56039867065413,61.152636470689494A65.1814125,65.1814125,0,0,0,25.24463247443866,60.094301449685496Z" fill="rgb(24, 24, 24)"/><path d="M23.750446466771926,63.40037066738569A67.70295937499999,67.70295937499999,0,0,1,20.921365016351697,64.3893406860598L20.142164179863656,61.99120709944736A65.1814125,65.1814125,0,0,0,22.86587857460003,61.039070540980575Z" fill="rgb(34, 34, 34)"/><path d="M21.243048861821162,64.2839294317575A67.70295937499999,67.70295937499999,0,0,1,18.37732174994686,65.16106777387729L17.692871931840987,62.734191780070205A65.1814125,65.1814125,0,0,0,20.45186714735128,61.88972180970156Z" fill="rgb(43, 43, 43)"/><path d="M16.133904658641022,65.75247393519714A67.70295937499999,67.70295937499999,0,0,1,13.208192145913616,66.40206599473788L12.716262754091105,63.928969935891125A65.1814125,65.1814125,0,0,0,15.533009258364523,63.303571454339895Z" fill="rgb(62, 62, 62)"/><path d="M13.540035990454792,66.33519528508293A67.70295937499999,67.70295937499999,0,0,1,10.59107623146861,66.86942359847377L10.19661939500412,64.37892114977217A65.1814125,65.1814125,0,0,0,13.035747318965404,63.86458977658309Z" fill="rgb(72, 72, 72)"/><path d="M10.925289568172639,66.81563257190997A67.70295937499999,67.70295937499999,0,0,1,7.957629645131228,67.2336733978133L7.661253587875784,64.72960473351753A65.1814125,65.1814125,0,0,0,10.518385202050226,64.32713353038861Z" fill="rgb(82, 82, 82)"/><path d="M8.293697141257145,67.19304499620479A67.70295937499999,67.70295937499999,0,0,1,5.311912970661526,67.49425374596727L5.114074683013652,64.98047995845917A65.1814125,65.1814125,0,0,0,7.984804497541252,64.6904895068139Z" fill="rgb(91, 91, 91)"/><path d="M2.996224891249514,67.63662724097023A67.70295937499999,67.70295937499999,0,0,1,4.145610624569851e-15,67.70295937499999L3.991210409101414e-15,65.1814125A65.1814125,65.1814125,0,0,0,2.8846327011728534,65.11755085746454Z" fill="rgb(110, 110, 110)"/><path d="M26.984798820050568,64.23672978773659A69.67450625,69.67450625,0,0,1,24.115535056577407,65.36801809842696L23.24278467291946,63.00232466717954A67.152959375,67.152959375,0,0,0,26.008208689751623,61.91197811062676Z" fill="rgb(24, 24, 24)"/><path d="M24.442072341677324,65.24662382702648A69.67450625,69.67450625,0,0,1,21.53060650593352,66.26439318870989L20.75140566944548,63.86625960209746A67.152959375,67.152959375,0,0,0,23.557504449505426,62.88532370062136Z" fill="rgb(34, 34, 34)"/><path d="M21.861657959349934,66.15591230154475A69.67450625,69.67450625,0,0,1,18.912479320626943,67.05859338763486L18.22802950252107,64.63171739382778A67.152959375,67.152959375,0,0,0,21.07047624488005,63.76170467948881Z" fill="rgb(43, 43, 43)"/><path d="M19.24753448501383,66.96319315437019A69.67450625,69.67450625,0,0,1,16.265190463011805,67.74939409605992L15.67654703529771,65.29751776193716A67.152959375,67.152959375,0,0,0,18.55095889310368,64.53976973128101Z" fill="rgb(53, 53, 53)"/><path d="M16.60373270759094,67.66722161694067A69.67450625,69.67450625,0,0,1,13.592821860627259,68.33573014936287L13.100892468804746,65.86263409051611A67.152959375,67.152959375,0,0,0,16.00283730731444,65.21831913608342Z" fill="rgb(62, 62, 62)"/><path d="M13.934329177795522,68.26691212839587A69.67450625,69.67450625,0,0,1,10.899494112160975,68.81669745984804L10.505037275696484,66.32619501114644A67.152959375,67.152959375,0,0,0,13.430040506306133,65.79630661989604Z" fill="rgb(72, 72, 72)"/><path d="M11.243439922388243,68.76134000943361A69.67450625,69.67450625,0,0,1,8.189360133784861,69.19155441078387L7.892984076529418,66.6874857464881A67.152959375,67.152959375,0,0,0,10.83653555626583,66.27284096791223Z" fill="rgb(82, 82, 82)"/><path d="M8.535214097561418,69.14974288809812A69.67450625,69.67450625,0,0,1,5.466598755659084,69.45972299992215L5.268760468011211,66.94594921241405A67.152959375,67.152959375,0,0,0,8.226321453845527,66.64718739870723Z" fill="rgb(91, 91, 91)"/><path d="M5.813827591240847,69.43152187530254A69.67450625,69.67450625,0,0,1,2.735408278479094,69.62078973073572L2.636412812738738,67.10118687699367A67.152959375,67.152959375,0,0,0,5.603422959999099,66.91876869721794Z" fill="rgb(101, 101, 101)"/><path d="M3.083476584169181,69.60624248827233A69.67450625,69.67450625,0,0,1,4.2663330530617375e-15,69.67450625L4.1119328375933e-15,67.152959375A67.152959375,67.152959375,0,0,0,2.9718843940925206,67.08716610476664Z" fill="rgb(110, 110, 110)"/><path d="M48.09010415374677,55.73950943668043A73.6176,73.6176,0,0,1,43.271339589166374,59.55788948509712L40.63036534574889,55.92290028402726A69.12450625,69.12450625,0,0,0,45.15502685687689,52.33756694632466Z" fill="rgb(110, 110, 110)"/><path d="M43.56858690518604,59.34078921656884A73.6176,73.6176,0,0,1,38.46509033783284,62.76932256335381L36.11745530232364,58.93833036989547A69.12450625,69.12450625,0,0,0,40.909470803601316,55.719050268966186Z" fill="rgb(101, 101, 101)"/><path d="M33.74924068629919,65.4258342159903A73.6176,73.6176,0,0,1,28.172235850480234,68.0137938726029L26.452803312292104,63.86271651932351A69.12450625,69.12450625,0,0,0,31.689427511258753,61.43270747993259Z" fill="rgb(82, 82, 82)"/><path d="M28.511951250676496,67.87208310961913A73.6176,73.6176,0,0,1,22.74908948509713,70.01449819401009L21.36064715902727,65.74131210474756A69.12450625,69.12450625,0,0,0,26.771784905064585,63.729654771568036Z" fill="rgb(72, 72, 72)"/><path d="M17.54338880549077,71.4967169804277A73.6176,73.6176,0,0,1,11.516329873545704,72.71124518259661L10.813455156388848,68.27346887252072A69.12450625,69.12450625,0,0,0,16.472665356264354,67.13306681782694Z" fill="rgb(53, 53, 53)"/><path d="M11.87974063081945,72.65275488448086A73.6176,73.6176,0,0,1,5.775970325654201,73.39066150783192L5.42344625300877,68.91141846636894A69.12450625,69.12450625,0,0,0,11.154685910481433,68.21854840543585Z" fill="rgb(43, 43, 43)"/><path d="M6.142849904744494,73.36086439517858A73.6176,73.6176,0,0,1,4.507777910045509e-15,73.6176L4.232655266085185e-15,69.12450625A69.12450625,69.12450625,0,0,0,5.767934116750923,68.88343995715596Z" fill="rgb(34, 34, 34)"/><path d="M0.2892249198926496,57.844501936193886A57.845225,57.845225,0,0,1,-17.87515756844259,55.01407817280931L-12.8312663048818,39.49057706764621A41.52285,41.52285,0,0,0,0.20761338494170442,41.52233096545632Z" fill="rgb(24, 24, 24)"/><path d="M-17.599864884699638,55.102765913708375A57.845225,57.845225,0,0,1,-34.00057017053989,46.79777006844255L-24.406518863152527,33.592691304881775A41.52285,41.52285,0,0,0,-12.633653851768237,39.55423950066796Z" fill="rgb(34, 34, 34)"/><path d="M-33.76615728890829,46.96718724004378A57.845225,57.845225,0,0,1,-46.79777006844256,34.00057017053988L-33.59269130488178,24.40651886315252A41.52285,41.52285,0,0,0,-24.238251025624766,33.71430348296254Z" fill="rgb(43, 43, 43)"/><path d="M-46.62718295502703,34.23413303968806A57.845225,57.845225,0,0,1,-55.01407817280932,17.87515756844257L-39.490577067646214,12.831266304881789A41.52285,41.52285,0,0,0,-33.47023931126803,24.574176538979863Z" fill="rgb(53, 53, 53)"/><path d="M-54.92401508282126,18.150003374177313A57.845225,57.845225,0,0,1,-57.845225,7.083996964220846e-15L-41.52285,5.085082534397567e-15A41.52285,41.52285,0,0,0,-39.42592737225458,13.028557977006026Z" fill="rgb(62, 62, 62)"/><path d="M-57.844501936193886,0.2892249198926531A57.845225,57.845225,0,0,1,-55.01407817280933,-17.87515756844256L-39.49057706764622,-12.83126630488178A41.52285,41.52285,0,0,0,-41.52233096545632,0.20761338494170695Z" fill="rgb(72, 72, 72)"/><path d="M-55.10276591370839,-17.59986488469961A57.845225,57.845225,0,0,1,-46.797770068442546,-34.00057017053991L-33.59269130488177,-24.40651886315254A41.52285,41.52285,0,0,0,-39.55423950066797,-12.633653851768218Z" fill="rgb(82, 82, 82)"/><path d="M-46.96718724004375,-33.766157288908325A57.845225,57.845225,0,0,1,-34.000570170539845,-46.797770068442595L-24.406518863152495,-33.592691304881804A41.52285,41.52285,0,0,0,-33.714303482962514,-24.238251025624795Z" fill="#fdf151"/><path d="M-34.23413303968806,-46.627182955027024A57.845225,57.845225,0,0,1,-17.875157568442575,-55.01407817280932L-12.83126630488179,-39.490577067646214A41.52285,41.52285,0,0,0,-24.574176538979863,-33.470239311268024Z" fill="rgb(101, 101, 101)"/><path d="M-18.150003374177317,-54.924015082821256A57.845225,57.845225,0,0,1,-1.0625995446331268e-14,-57.845225L-7.62762380159635e-15,-41.52285A41.52285,41.52285,0,0,0,-13.028557977006027,-39.42592737225457Z" fill="rgb(110, 110, 110)"/><path d="M0.32865569309728165,65.7305908590555A65.73141249999999,65.73141249999999,0,0,1,-10.28265835077624,64.92214973709949L-8.96294787223466,56.58982570427506A57.295225,57.295225,0,0,0,0.28647493135096863,57.29450881117956Z" fill="rgb(120, 120, 120)"/><path d="M-9.957920421672236,64.97275128945054A65.73141249999999,65.73141249999999,0,0,1,-20.31212352676987,62.51428818340969L-17.705198221536367,54.49099708884698A57.295225,57.295225,0,0,0,-8.679887886051525,56.63393288556077Z" fill="rgb(110, 110, 110)"/><path d="M-19.999299487217083,62.61506695090051A65.73141249999999,65.73141249999999,0,0,1,-29.84143680946131,58.56711738161682L-26.011487830439794,51.05041927984047A57.295225,57.295225,0,0,0,-17.43252305680313,54.57884157505225Z" fill="#fdf151"/><path d="M-29.548229425516936,58.71559185652624A65.73141249999999,65.73141249999999,0,0,1,-38.63595487985311,53.17782977676984L-33.677288281779006,46.35281072153635A57.295225,57.295225,0,0,0,-25.755911654669127,51.17983804817581Z" fill="rgb(91, 91, 91)"/><path d="M-38.36958389040948,53.37034402476702A65.73141249999999,65.73141249999999,0,0,1,-46.47912751572019,46.479127515720194L-40.51384212710901,40.51384212710901A57.295225,57.295225,0,0,0,-33.44510422862717,46.52061705240904Z" fill="rgb(82, 82, 82)"/><path d="M-46.24615185857198,46.71094119710129A65.73141249999999,65.73141249999999,0,0,1,-53.17782977676983,38.635954879853124L-46.35281072153634,33.67728828177902A57.295225,57.295225,0,0,0,-40.31076733853924,40.71590407173569Z" fill="rgb(72, 72, 72)"/><path d="M-52.98398608579793,38.90135997243704A65.73141249999999,65.73141249999999,0,0,1,-58.567117381616825,29.841436809461293L-51.050419279840476,26.01148783043978A57.295225,57.295225,0,0,0,-46.18384557280984,33.90863040447784Z" fill="rgb(62, 62, 62)"/><path d="M-58.417178731823256,30.13389815903962A65.73141249999999,65.73141249999999,0,0,1,-62.5142881834097,20.312123526769852L-54.49099708884699,17.705198221536353A57.295225,57.295225,0,0,0,-50.91972425368204,26.266413720369407Z" fill="#fdf151"/><path d="M-62.41194656197025,20.624439764292394A65.73141249999999,65.73141249999999,0,0,1,-64.92214973709947,10.28265835077625L-56.58982570427505,8.962947872234668A57.295225,57.295225,0,0,0,-54.40179033055257,17.9774307572362Z" fill="rgb(43, 43, 43)"/><path d="M-64.86992513438635,10.607139213957039A65.73141249999999,65.73141249999999,0,0,1,-65.73141249999999,8.04977639215593e-15L-57.295225,7.016641390267741e-15A57.295225,57.295225,0,0,0,-56.544303780294115,9.245783785187816Z" fill="rgb(34, 34, 34)"/><path d="M0.3680864663019138,73.61667978191711A73.6176,73.6176,0,0,1,-11.516329873545695,72.71124518259661L-10.196619395004113,64.37892114977217A65.1814125,65.1814125,0,0,0,0.3259057045556007,65.18059773404117Z" fill="rgb(24, 24, 24)"/><path d="M-11.152631208624918,72.76791770336983A73.6176,73.6176,0,0,1,-22.749089485097155,70.01449819401009L-20.14216417986365,61.99120709944736A65.1814125,65.1814125,0,0,0,-9.874598673004204,64.42909929948004Z" fill="#fdf151"/><path d="M-22.39873408973453,70.12736798809266A73.6176,73.6176,0,0,1,-33.42169101362608,65.59376189508957L-29.59174203460456,58.077063793313215A65.1814125,65.1814125,0,0,0,-19.831957659320576,62.09114261224439Z" fill="rgb(43, 43, 43)"/><path d="M-33.093305800418264,65.76004973355785A73.6176,73.6176,0,0,1,-43.27133958916636,59.55788948509713L-38.31267299109225,52.732870429863624A65.1814125,65.1814125,0,0,0,-29.30098802957045,58.224295925207414Z" fill="rgb(53, 53, 53)"/><path d="M-42.97301049191069,59.77350080949027A73.6176,73.6176,0,0,1,-52.055504174678774,52.05550417467878L-46.09021878606759,46.090218786067595A65.1814125,65.1814125,0,0,0,-38.04853083012837,52.92377383713227Z" fill="rgb(62, 62, 62)"/><path d="M-51.79457704584712,52.31512991861729A73.6176,73.6176,0,0,1,-59.55788948509712,43.271339589166374L-52.73287042986362,38.31267299109226A65.1814125,65.1814125,0,0,0,-45.85919252581438,46.320092793251675Z" fill="rgb(72, 72, 72)"/><path d="M-59.34078921656884,43.56858690518604A73.6176,73.6176,0,0,1,-65.59376189508959,33.42169101362607L-58.07706379331322,29.591742034604543A65.1814125,65.1814125,0,0,0,-52.54064870358073,38.57585733722682Z" fill="rgb(82, 82, 82)"/><path d="M-65.42583421599029,33.74924068629919A73.6176,73.6176,0,0,1,-70.01449819401009,22.749089485097134L-61.991207099447365,20.14216417986363A65.1814125,65.1814125,0,0,0,-57.92837973784906,29.88175624762897Z" fill="rgb(91, 91, 91)"/><path d="M-69.89987804111925,23.098876154407485A73.6176,73.6176,0,0,1,-72.7112451825966,11.516329873545708L-64.37892114977215,10.196619395004124A65.1814125,65.1814125,0,0,0,-61.88972180970156,20.451867147351283Z" fill="rgb(101, 101, 101)"/><path d="M-72.65275488448086,11.879740630819454A73.6176,73.6176,0,0,1,-73.6176,9.015555820091018e-15L-65.1814125,7.982420818202827e-15A65.1814125,65.1814125,0,0,0,-64.32713353038861,10.51838520205023Z" fill="rgb(110, 110, 110)"/><path d="M-65.7305908590555,0.32865569309728565A65.73141249999999,65.73141249999999,0,0,1,-64.92214973709949,-10.282658350776236L-56.58982570427506,-8.962947872234656A57.295225,57.295225,0,0,0,-57.29450881117956,0.28647493135097213Z" fill="#fdf151"/><path d="M-64.97275128945054,-9.957920421672233A65.73141249999999,65.73141249999999,0,0,1,-62.514288183409704,-20.312123526769838L-54.490997088846996,-17.70519822153634A57.295225,57.295225,0,0,0,-56.63393288556077,-8.679887886051521Z" fill="#fdf151"/><path d="M-62.61506695090053,-19.999299487217048A65.73141249999999,65.73141249999999,0,0,1,-58.56711738161683,-29.841436809461282L-51.05041927984048,-26.01148783043977A57.295225,57.295225,0,0,0,-54.578841575052266,-17.432523056803102Z" fill="rgb(43, 43, 43)"/><path d="M-58.715591856526224,-29.548229425516958A65.73141249999999,65.73141249999999,0,0,1,-53.17782977676984,-38.63595487985311L-46.35281072153635,-33.677288281779006A57.295225,57.295225,0,0,0,-51.179838048175796,-25.755911654669145Z" fill="#fdf151"/><path d="M-53.37034402476702,-38.36958389040948A65.73141249999999,65.73141249999999,0,0,1,-46.4791275157202,-46.47912751572019L-40.513842127109015,-40.51384212710901A57.295225,57.295225,0,0,0,-46.52061705240904,-33.44510422862717Z" fill="rgb(62, 62, 62)"/><path d="M-46.71094119710129,-46.24615185857198A65.73141249999999,65.73141249999999,0,0,1,-38.635954879853124,-53.17782977676983L-33.67728828177902,-46.35281072153634A57.295225,57.295225,0,0,0,-40.71590407173569,-40.31076733853924Z" fill="#fdf151"/><path d="M-38.90135997243704,-52.98398608579792A65.73141249999999,65.73141249999999,0,0,1,-29.841436809461296,-58.567117381616825L-26.011487830439783,-51.050419279840476A57.295225,57.295225,0,0,0,-33.90863040447784,-46.18384557280983Z" fill="#fdf151"/><path d="M-30.133898159039624,-58.417178731823256A65.73141249999999,65.73141249999999,0,0,1,-20.312123526769856,-62.5142881834097L-17.705198221536357,-54.49099708884699A57.295225,57.295225,0,0,0,-26.26641372036941,-50.91972425368204Z" fill="rgb(91, 91, 91)"/><path d="M-20.6244397642924,-62.41194656197024A65.73141249999999,65.73141249999999,0,0,1,-10.282658350776256,-64.92214973709947L-8.962947872234674,-56.58982570427505A57.295225,57.295225,0,0,0,-17.977430757236203,-54.401790330552565Z" fill="rgb(101, 101, 101)"/><path d="M-10.607139213957044,-64.86992513438635A65.73141249999999,65.73141249999999,0,0,1,-1.2074664588233895e-14,-65.73141249999999L-1.0524962085401612e-14,-57.295225A57.295225,57.295225,0,0,0,-9.245783785187822,-56.544303780294115Z" fill="#fdf151"/><path d="M-73.61667978191711,0.3680864663019182A73.6176,73.6176,0,0,1,-72.71124518259661,-11.516329873545692L-64.37892114977217,-10.19661939500411A65.1814125,65.1814125,0,0,0,-65.18059773404117,0.32590570455560464Z" fill="rgb(24, 24, 24)"/><path d="M-72.76791770336983,-11.152631208624914A73.6176,73.6176,0,0,1,-70.0144981940101,-22.74908948509712L-61.99120709944737,-20.142164179863617A65.1814125,65.1814125,0,0,0,-64.42909929948004,-9.8745986730042Z" fill="#fdf151"/><path d="M-70.12736798809269,-22.398734089734493A73.6176,73.6176,0,0,1,-65.59376189508959,-33.42169101362605L-58.07706379331323,-29.591742034604533A65.1814125,65.1814125,0,0,0,-62.091142612244404,-19.83195765932054Z" fill="rgb(43, 43, 43)"/><path d="M-65.76004973355784,-33.09330580041829A73.6176,73.6176,0,0,1,-59.55788948509713,-43.27133958916636L-52.732870429863624,-38.31267299109225A65.1814125,65.1814125,0,0,0,-58.2242959252074,-29.300988029570473Z" fill="rgb(53, 53, 53)"/><path d="M-59.77350080949027,-42.97301049191069A73.6176,73.6176,0,0,1,-52.05550417467879,-52.055504174678774L-46.0902187860676,-46.09021878606759A65.1814125,65.1814125,0,0,0,-52.92377383713227,-38.04853083012837Z" fill="rgb(62, 62, 62)"/><path d="M-52.31512991861729,-51.79457704584712A73.6176,73.6176,0,0,1,-43.271339589166374,-59.55788948509712L-38.31267299109226,-52.73287042986362A65.1814125,65.1814125,0,0,0,-46.320092793251675,-45.85919252581438Z" fill="#fdf151"/><path d="M-43.56858690518604,-59.34078921656882A73.6176,73.6176,0,0,1,-33.42169101362607,-65.59376189508959L-29.591742034604547,-58.07706379331322A65.1814125,65.1814125,0,0,0,-38.57585733722682,-52.54064870358072Z" fill="#fdf151"/><path d="M-33.749240686299196,-65.42583421599029A73.6176,73.6176,0,0,1,-22.749089485097137,-70.01449819401009L-20.142164179863634,-61.991207099447365A65.1814125,65.1814125,0,0,0,-29.881756247628974,-57.92837973784906Z" fill="rgb(91, 91, 91)"/><path d="M-23.09887615440749,-69.89987804111924A73.6176,73.6176,0,0,1,-11.516329873545713,-72.7112451825966L-10.196619395004129,-64.37892114977215A65.1814125,65.1814125,0,0,0,-20.451867147351287,-61.889721809701555Z" fill="rgb(101, 101, 101)"/><path d="M-11.879740630819459,-72.65275488448086A73.6176,73.6176,0,0,1,-1.3523333730136526e-14,-73.6176L-1.197363122730424e-14,-65.1814125A65.1814125,65.1814125,0,0,0,-10.518385202050235,-64.32713353038861Z" fill="rgb(110, 110, 110)"/></g><g data-v-e3d92e12="" id="text" transform="translate(192.34645, 59.84285)scale(2.7603075)"><svg xmlns="http://www.w3.org/2000/svg" xmlns:xlink="http://www.w3.org/1999/xlink" version="1.1" id="Layer_1" x="0px" y="0px" width="100px" height="37.42088px" viewBox="0 0 100 37.42088" style="enable-background:new 0 0 100 37.42088;" xml:space="preserve">
<g>
	<path id="o" d="M15.06521,7.07334c0,4.24029-3.12632,7.07334-7.50318,7.07334H7.50318C3.22442,14.14668,0,11.31362,0,7.07334   C0,2.85293,3.12632,0,7.50318,0h0.05886C11.93889,0,15.06521,2.85293,15.06521,7.07334z M10.68836,7.07334   c0-1.77795-1.27015-3.06772-3.12632-3.06772H7.50318c-1.85617,0-3.12632,1.28977-3.12632,3.06772   c0,1.79783,1.27015,3.06772,3.12632,3.06772h0.05886C9.41821,10.14106,10.68836,8.87117,10.68836,7.07334z" fill="#000"/>
	<path id="p" d="M29.87536,5.51018c0,2.91153-2.30537,5.27577-5.80293,5.27577h-3.14594v3.12632H16.6276V0.23467h7.44483   C27.56999,0.23467,29.87536,2.5989,29.87536,5.51018z M25.57699,5.51018c0-0.84005-0.68412-1.50456-1.50456-1.50456h-3.14594   v3.00912h3.14594C24.89286,7.01474,25.57699,6.35049,25.57699,5.51018z" fill="#000"/>
	<path id="e" d="M35.73663,3.94702v1.36799h5.51018v3.55616h-5.51018v1.30913h6.83867v3.73197H31.43775V0.23467h11.13756v3.71235   H35.73663z" fill="#000"/>
	<path id="n" d="M58.26527,0.23467v13.6776h-4.22041l-5.29539-7.19054v7.19054h-4.22041V0.23467h4.22041l5.29539,7.01474V0.23467   H58.26527z" fill="#000"/>
	<path id="underscore" d="M0.39085,33.37601h12.11444v4.04486H0.39085V33.37601z" fill="#000"/>
	<path id="f" d="M18.75742,22.23846v1.8758h5.51018v3.71235h-5.51018v4.37685h-4.29889V18.52611h11.13756v3.71235H18.75742z" fill="#000"/>
	<path id="u1" d="M27.54933,25.97042v-7.44431h4.29889v7.05346c0,1.44621,0.64488,2.71636,2.4422,2.71636h0.05886   c1.81693,0,2.4422-1.27015,2.4422-2.71636v-7.05346h4.29889v7.44431c0,4.24003-2.55992,6.46744-6.74109,6.46744h-0.05886   C30.10925,32.43786,27.54933,30.21045,27.54933,25.97042z" fill="#000"/>
	<path id="t" d="M56.44781,22.2968H51.8949v9.90665h-4.29837V22.2968h-4.55292v-3.77069h13.40421V22.2968z" fill="#000"/>
	<path id="u2" d="M58.40106,25.97042v-7.44431h4.29889v7.05346c0,1.44621,0.64489,2.71636,2.4422,2.71636H65.201   c1.81693,0,2.4422-1.27015,2.4422-2.71636v-7.05346h4.29889v7.44431c0,4.24003-2.55992,6.46744-6.74109,6.46744h-0.05886   C60.96098,32.43786,58.40106,30.21045,58.40106,25.97042z" fill="#000"/>
	<path id="r" d="M73.89585,18.52611h7.44482c3.49756,0,5.80293,2.36423,5.80293,5.27525c0,1.77821-0.85967,3.36125-2.34461,4.31851   l2.69623,4.08358h-4.9825l-1.85617-3.12632h-2.4422v3.12632h-4.3185V18.52611z M81.34068,25.30592   c0.82043,0,1.50456-0.66399,1.50456-1.50456c0-0.84005-0.68413-1.50456-1.50456-1.50456h-3.12632v3.00912H81.34068z" fill="#000"/>
	<path id="e2" d="M93.16133,22.23846v1.36773h5.51018v3.55642h-5.51018v1.30887H100v3.73197H88.86244V18.52611H100v3.71235H93.16133   z" fill="#000"/>
</g>
</svg></g></svg>